<svg xmlns="http://www.w3.org/2000/svg" viewBox="0 0 20 20">
  <path d="M10 6.25a3.75 3.75 0 1 0 0 7.5 3.75 3.75 0 0 0 0-7.5Zm0 6.25a2.5 2.5 0 1 1 0-5 2.5 2.5 0 0 1 0 5Zm8.589-4.124a.625.625 0 0 0-.304-.422l-2.33-1.328-.01-2.627a.625.625 0 0 0-.22-.475 8.742 8.742 0 0 0-2.87-1.615.625.625 0 0 0-.504.046L10 3.27 7.647 1.953a.625.625 0 0 0-.506-.047 8.758 8.758 0 0 0-2.865 1.621.625.625 0 0 0-.221.475L4.043 6.63 1.713 7.96a.625.625 0 0 0-.304.421 8.318 8.318 0 0 0 0 3.247.625.625 0 0 0 .303.422l2.33 1.328.01 2.627a.625.625 0 0 0 .221.475 8.741 8.741 0 0 0 2.87 1.615.624.624 0 0 0 .504-.046L10 16.73l2.353 1.316a.618.618 0 0 0 .505.045 8.758 8.758 0 0 0 2.866-1.62.625.625 0 0 0 .221-.474l.012-2.628 2.33-1.329a.624.624 0 0 0 .304-.421 8.319 8.319 0 0 0-.002-3.244Zm-1.172 2.727-2.232 1.27a.625.625 0 0 0-.234.234c-.046.078-.093.161-.142.24a.62.62 0 0 0-.095.328l-.012 2.52c-.6.47-1.268.847-1.982 1.117l-2.251-1.255a.625.625 0 0 0-.306-.078h-.299a.632.632 0 0 0-.32.078L7.29 16.815a7.498 7.498 0 0 1-1.988-1.112l-.009-2.515a.625.625 0 0 0-.095-.33 4.427 4.427 0 0 1-.14-.24.632.632 0 0 0-.235-.238L2.59 11.107a7.07 7.07 0 0 1 0-2.208l2.228-1.272a.625.625 0 0 0 .234-.234c.046-.078.093-.161.142-.24a.62.62 0 0 0 .095-.328l.012-2.52a7.491 7.491 0 0 1 1.982-1.117L9.53 4.443a.625.625 0 0 0 .32.078h.285a.632.632 0 0 0 .32-.078l2.253-1.258a7.501 7.501 0 0 1 1.988 1.112l.008 2.515c0 .117.034.231.096.33.048.078.096.156.14.24.055.099.136.181.235.238l2.234 1.273c.117.732.119 1.478.004 2.21h.003Z"/>
</svg>