<svg xmlns="http://www.w3.org/2000/svg" viewBox="0 0 20 20">
  <path d="m19.33 9.14-1.094-2.734a1.245 1.245 0 0 0-1.16-.781h-2.701V5a.625.625 0 0 0-.625-.625H1.875a1.25 1.25 0 0 0-1.25 1.25v8.75a1.25 1.25 0 0 0 1.25 1.25h1.328a2.5 2.5 0 0 0 4.844 0h3.906a2.5 2.5 0 0 0 4.844 0h1.328a1.25 1.25 0 0 0 1.25-1.25v-5c0-.08-.015-.16-.045-.234Zm-4.955-2.265h2.702l.75 1.875h-3.452V6.875Zm-12.5-1.25h11.25v5H1.875v-5Zm3.75 10.625a1.25 1.25 0 1 1 0-2.5 1.25 1.25 0 0 1 0 2.5Zm6.328-1.875H8.047a2.5 2.5 0 0 0-4.844 0H1.875v-2.5h11.25v.962a2.507 2.507 0 0 0-1.172 1.538Zm2.422 1.875a1.25 1.25 0 1 1 0-2.5 1.25 1.25 0 0 1 0 2.5Zm3.75-1.875h-1.328a2.505 2.505 0 0 0-2.422-1.875V10h3.75v4.375Z"/>
</svg>