<svg xmlns="http://www.w3.org/2000/svg" viewBox="0 0 3 3"><path d="M2.346.967 2.148.943h-.035L2.077.99l-.011.035-.012.012-.023.012-.012-.012-.035-.024h-.035l-.012.012-.023.012-.012.023-.035.07-.024.036-.011.011-.012.012-.011.012-.012.011v.012l.012.023v.036l-.012.034-.012.024.012.047.012.023v.012l.011.035v.023l-.011.035-.036.094v.047l-.011.023-.082.035-.012.024-.012.035v.07l.036.175.011.094v.047l-.023.093v.058l.023.13v.07l-.011.046v.012l-.012.012-.012.011-.023.024-.012.011-.011.012-.012.012-.012.023-.023.059v.011l-.012.012-.012.012h-.046l-.059-.047-.152-.047-.023-.023-.012-.012-.012-.012-.023-.023-.035-.094-.024-.058-.023-.187v-.059l-.012-.035-.011-.011-.012-.012-.024.012-.011.011v.012l-.012.023-.012.012-.011.012-.024-.012h-.011L.99 2.206l-.082-.082-.012-.023-.011-.011v-.106l-.012-.011-.035-.036v-.07l.011-.105.012-.047V1.68l-.023-.093-.012-.141v-.047l.035-.14.012-.082.012-.035.035-.082V.99L.908.967V.932L.92.908.93.885.955.85.978.826l.293-.21.42-.328.07-.023.141.105.012.012.012.012v.023l.011.023-.011.036v.023l.011.011.012.024.023.012.035.011h.035l.024.012v.082l.011.012.024.023.129.058.035.012h.011l.059.024.128.07.012.011.012.012-.035.035-.024.035-.046.024z"/></svg>