<svg xmlns="http://www.w3.org/2000/svg" viewBox="0 0 35 30"><path d="M1.271 18.344V2.964h20.816l.07-.07.07-.023.06-.047.046-.047.024-.07.023-.128.023-.07.047-.024.058-.012.07-.023.047-.024.047-.046.023-.024.012-.035.024-.023.046-.023.035-.024.036-.035.011-.023h.024l.269-.153h.058l.035-.023.047-.058.093-.199.047-.035.234-.035.047-.024.047.035.012.059.011.035.047.023.093-.011.047.011.035.035.059-.035.035-.011.047-.012.292-.012.094.012.117-.023h.046l.082.011.047-.011.105-.047.117-.035.14-.047.036-.012.163.012.059-.012.058-.035.047-.011.07.023.105.082.14.163.083.059.117.023.327.012.117-.012.234-.058h.105l.105.035.094.07.058.023.106.024.046.035.036.047.035.035h.058l.07.011.047.012.023.059v.175l.024.047.035.023.07.012.094.012.058.011.059.035.093.07.175.117.036.188.023.046-.023.036.011.023.012.012v.117l.012.105.011.023.047.024.024.023v.093l.011.036.07.023.024-.012.058-.023.035-.012.012-.023v-.023l.012-.012.058-.035.024-.012.011-.035.047-.07.024-.024.058-.035.012-.011v-.106l.023-.058.058-.117.012-.035v-.012l.024-.012h.023l.023-.011h.024l.047-.035h.023l.011-.012h.059l.023-.012.024-.012.093-.07.047-.023.012-.012h.012l.011.012.082.175.012.012h.011l.012.012h.059l.011.011h.012l.023.024.012.012h.024l.011-.024.024-.082.011-.035.012-.012.023-.011.012-.012h.035l.047.012.058.023h.047l.07-.046.035-.012h.07l.012-.012.012-.012.012-.011.011-.024.012-.011v-.106l.035-.082.012-.034v-.106l.011-.082v-.023l.012-.024v-.011l.035-.035v-.047l-.023-.035-.07-.082-.059-.058-.012-.012-.011-.024-.012-.035v-.046l-.023-.047-.07-.07v-.036l.011-.011v-.012l.012-.011.012-.012h.023l.024-.012h.034l.024-.012.058-.046.012-.024.035-.035.293-.152.023-.012h.035l.082.012h.023l.012-.012.023-.011.024-.024.046-.046.059-.059.024-.012.034-.012.117-.011.082-.023.047-.036.012-.011v-.012l.012-.012.034-.105.012-.012.035-.023.082-.082.024-.011.011-.012h.024l.023.012.047.034.023.036v.07l.012.011.012.012.011.012.012.012.023.011.035.012.024-.012.023-.023.012-.012V.918l.012-.024V.883l.011-.012.012-.012h.023l.07.07.024.012.246.117h.046l.035-.012h.047l.07-.035.012-.011.023-.035.012-.012h.117l.047.012.07.035h.023l.152.011h.012l.012.012.14-.012.035.012h.012l.023.012.024.011h.012l.034-.011.036-.035.058-.094.023-.012.012-.011.012-.012.012-.023.011-.036.035-.046.059-.012.046.012.2-.059h.034l.082.024.07-.035.234-.188.094-.07.059.082.081-.012.024.059.023.152.035.07v.152l-.082.421v.129l.035.245.024.059.093.105.024.059v.011l-.024.059-.012.023.012.035v.07l-.046.094v.07l.023.129-.012.117-.058.093-.164.14-.117.164-.058.106-.035.117-.012.035v.023l.023.14v.035l-.011.012-.047.012-.012.012-.012.035-.117.199-.046.117-.024.128.024.105.046.07v.047l-.023.036-.012.046v.047l.012.058.012.024-.035.058-.024.14-.035.094-.012.036v.07l.012.035v.035l-.023.035-.012.023.012.07.011.047-.011.047-.059.105-.011.059-.012.058v.035l.012.129v.023l-.047.047v.023l-.012.129-.012.07-.011.059-.094.128-.011.047-.012.024-.035.046-.012.035v.035l.023.082-.011.164-.035.14-.14.246.023.094-.035.105-.106.199-.023.058-.023.094-.059.105-.023.058-.047.246-.012.176-.035.058.012.012-.059.245.035.047.012.257.059.117.011.024.024.023.035.012h.023l.012-.024.012-.011.011.011.024.024.011.035-.011.07v.024l-.012.023-.047.047-.047.105-.011.117.011.047.036.011v.082l-.047.035-.082.106-.082.128v.105l-.047.117.024.047.011.199-.105.14-.047.094v.082l.047.046.012.059v.023l-.012.059-.07.07-.082.082-.082.117.012.093-.035.07.035.059-.047.035-.047.07-.058.082.035.047-.012.047-.058.058-.082.117-.024.105.024.047-.082.059-.059.082-.07.046-.152.129-.163.304.023.094-.07.07-.012.058-.023.07-.012.07.023.047.047.024.024.047.046.023.024.047-.035.035-.035.047-.012.035-.023.035-.012.035v.093l.035.012.035.012v.023l-.012.012-.011.012-.012.023-.012.035v.047l-.023.058-.012.07v.059l.047.035-.363.152-.128.082-.152.14-.024.082-.058.024-.07.035-.07.07-.047.07-.012.058.047.047.035.035h-.047l-.012-.035h-.011l-.012-.011-.035.011h-.012l-.058-.058-.024-.012v.012l-.058.035-.012.023-.128.035.07.059.011.012h.223l.035.011.011.024-.011.011v.07l-.012.024-.035.012-.058-.012-.024.012-.023.035-.012.023-.012.012-.035.011-.128-.035-.2.047-.128.047-.152.082-.058.046-.059.036-.082.081v.082l-.035.035-.035.047-.07.035-.023.047-.012.07v.059l-.035.023-.047.024-.058.07-.024.035-.012.035v.047l-.035.07-.023.105-.023.047-.012.046-.012.059-.035.047-.058.035-.059.082-.011.058.035.059-.024.023-.093.094-.047.023v-.035l.047-.047.023-.082-.07-.046-.058.035-.106.105v.023l.047.047-.035.012-.035.011v.036l.023.023.024.012.035.011.035-.035.023-.035.023.012v.058l-.046.035v.07l-.082.083-.035.046.023.024v.023l-.035.035.012.047.012.023-.012.024h-.035l.011.058-.011.012v.023l-.012.012-.023.023h-.082l-.012.012-.047-.012-.023.024-.023.023-.059.012-.035-.012-.07.047-.035-.012-.035-.035-.024-.082-.035.035-.011.07.011.059.047.023-.012.024-.012.023-.023.012h-.023v.023l.07-.011.082-.094.047-.012.023.024-.023.093-.024.094.012.035.035-.035.023-.047.024-.094.035.07-.047.164-.035.082-.012.082v.023l.024.024.011.035v.035l-.023.07-.012.14-.035.012h-.058l-.047.047-.012.047v.035l.024.011.035.012.035-.023.011-.023v-.012l.024.035-.012.07-.047.14.024.047-.035.094-.024.035-.023.035-.024-.012-.07-.105-.035-.023-.046.011-.012.035-.012.047-.023.035-.059.012-.047-.012-.046.012-.035.035.081.024.024.011.023.023h.012l.035-.046.152.023h.035v.047l-.023.023h-.129l-.023.024-.024.023v.023l-.023.024-.035.023h.093l.024.012v.035l-.024.035-.046.047-.105.082-.047.035-.07.035-.106.082-.047.07-.105.129-.07.128-.047.082.012.105-.059.14-.011.141.047.117-.059.047-.023.093-.035.047-.047-.012.023-.07-.012-.023-.034-.012h-.012l-.024.012-.081.105.011.035.012.012h.082l.035.023.07.07.035.036h.047l-.082.011-.035.07-.058.398-.036.094-.058.035-.082.047-.07.163-.07.035v.012l.035.035.035.023.023.012.047.012-.012.035-.035.023h-.047l.024.035.058.024.035.023-.023.024.023.023-.035.094.059.046.082.035h.058l.012.024-.035.105v.07l-.024.047-.07.058-.023-.034-.035-.024-.024-.035.024-.047.023-.047-.035-.07.023-.047-.058-.023-.047.012-.047.023-.093.024-.023.046-.024.117.047.012.011.047v.046l.012.036-.082.011-.093.07-.059.13-.07.034-.093.059-.012.023-.012.047-.011.035-.012.023-.024.024-.07.082-.023.058-.012.059v.082l.012.046.012.012v.012l-.024.035-.07.07-.023.012-.012.058-.035.047-.035.035-.024.047v.257l-.047.035-.046.07-.105.187-.07.2-.036.07-.047.023-.058-.012-.058-.035-.024.012-.082.023.07.082.024.094.012.011.023.047.012.035-.012.082-.012.023-.046.024-.07.023v.012l-.094.105-.012.012v.047l.035.093v.059l-.012.21-.023.129-.047-.012-.058-.035-.059.047.012.023v.012l-.023.035.011-.012h.024l.023-.012.035.024.047.047.023.046-.058.13v.128l.058.187v.07l-.035.035v.012l.024.07.011.035-.011.035-.035.024-.047.046-.047.047-.035.059-.023.07v.07l.011.082v.058l-.047.059v.035l.024.14v.07l-.024.07-.07.13-.081.198-.024.059v.058l-.012.07-.011.082-.036.082-.046.07-.047.047.023.07-.011.058-.059.117-.023.07.023.036.035.023.047.024-.023.046-.024.059-.011.058.011.047.024.035.011.023.012.024v.07l-.012.023h-.011l-.012-.011-.023-.012-.035.023-.047.047-.012.024-.023.011.012.035.046.047.035.012h.047l.023-.012h.024l.035.012.094.082.023.035.011.046.012.106.012.047.093.163v.024l-.07-.036-.058-.023h-.059l-.047.035-.034.047v.047l.046.129-.035.128v.129l.023.128.047.129-.035.047-.55-.269-.56-.292-.562-.293-.573-.28-.561-.293-.573-.28-.562-.293-.573-.28-.058-.036-.152-.011-.07-.024-.024-.012v-.011l.187-.304.024-.059.023-.07.012-.07-.012-.047-.047-.093-.023-.012-.047-.012-.023-.012-.012-.023-.012-.023-.011-.024v-.175l-.012-.023-.012-.012-.011-.07-.012-.024-.024-.047-.093-.07-.047-.047-.012-.07v-.035l.035-.058.012-.012-.012-.047v-.035l-.023-.047-.058-.187v-.035l-.035-.035.011-.082.024-.128-.024-.07-.093-.06-.024-.058.012-.081.012-.059-.012-.035-.059-.035-.058-.012-.023-.012-.036-.023-.011-.023-.023-.047-.012-.024-.035-.011-.07-.012-.34-.164-.023-.011-.047-.012h-.023l-.024.012-.046.047h-.012l-.304.128-.047-.023-.011-.059-.036-.046-.046-.036h-.07l-.047.036h-.129l-.035.023-.035.047-.035.047-.024.046-.023.176-.023.046-.047-.046-.047-.035-.047-.012h-.058l-.129.047h-.082l-.047-.012-.035-.035-.023-.024-.023-.011-.024.023-.07.094-.012.023-.011.012-.024.047v.058l.012.023v.024l.012.082.011.035.012.035.024.035.034.023.024.024.047.012h.105l.023.035-.233.07-.036-.024-.117-.117-.023-.07-.011-.117.023-.105-.082-.047-.024-.011h-.034l-.047.023-.024.023-.011.024-.012.023-.07-.012-.059-.046-.07-.035-.082.023-.047-.047-.023-.023-.023-.012h-.07l-.036-.012-.046-.07-.047-.012-.07.012-.059-.012-.047-.035-.081-.093-.036-.023h-.21l-.023-.012-.059-.047-.023-.012-.024.012-.023.023-.035.012-.023-.012-.024-.011h-.035l-.023.011-.13.21-.034.013-.175-.024-.094-.035h-.059l-.034.012h-.024l-.012.058-.046-.023-.047-.024-.059-.011-.163-.012-.047-.035-.047-.023-.082-.012-.093.012-.024-.012-.023-.024-.012-.034-.011-.024-.024-.035-.047-.035h-.117l-.163.058-.117-.011-.117-.047-.445-.398-.093-.047H13l-.105.036-.2.105-.104.011-.117-.011-.106-.047-.082-.023h-.257l-.292.058-.035.023-.047.036-.012.035-.023.187-.059.105-.023.058.035.059.035.058.047.059.023.07-.023.047-.058.012-.117-.059-.047-.012-.047.024-.117.105-.047.047-.117.012h-.07l-.023-.024v-.035L11 25.022h-.059l.012-.012-.023-.023-.047-.047-.047-.024-.117-.011-.035-.024-.292-.35-.105-.036-.047-.046-.035-.059-.117-.327-.059-.117-.082-.07-.023-.012h-.07l-.024-.012-.023-.023-.047-.047-.035-.023-.046-.059-.012-.012-.012-.023-.023-.012-.035-.011-.024-.012-.07-.094-.14-.198-.094-.059-.117-.023-.046-.024-.047-.105L9 23.104l-.164-.07-.105-.07-.058-.06-.024-.023-.023-.011-.058-.012-.012-.023-.012-.024-.023-.011-.117-.059-.21-.035-.141-.094-.035-.023-.012-.035-.011-.047.011-.023.024-.023.011-.024v-.07l-.011-.059-.024-.058-.035-.047-.047-.023-.233-.059-.059-.023-.047-.035-.035-.035-.058-.106-.047-.128-.035-.129-.023-.187-.024-.082v-.082l.024-.058.011-.035-.011-.024v-.023l-.012-.023v-.047l.012-.012.023-.012.011-.023.012-.023v-.024l-.012-.046-.011-.036.023-.058v-.035l-.012-.012-.07-.047-.035-.011-.046.023-.036.012-.023-.07-.012-.059-.046-.012-.059-.011-.023-.035-.164-.106-.047-.011-.234-.024-.105-.058-.035-.012-.023.047-.024.023-.035-.023-.082-.082h-.035l-.011.012-.024.023-.07.035v-.012l-.035-.046-.012-.024-.012-.07-.011-.035-.024-.023-.07-.036-.023-.034-.024-.012-.023-.012h-.035l-.059.035h-.023l-.058.023-.024.059-.023.14v.024l-.012.011-.012.024-.011.023.011.047v.023h.012l-.023.059-.012.012h-.152v.023l.012.058.023.059v.023l-.047.024-.046-.035-.036-.012h-.046l-.047-.012-.024-.011-.035-.024-.023-.023-.012-.024v-.093l-.07-.176-.058-.07-.012-.023v-.106l-.024-.035-.175-.14-.023-.047-.035-.28v-.059l.023-.07.047-.094.023-.058-.023-.058h-.035l-.047.011-.059.012-.035-.023-.07-.059-.047-.058-.035-.059-.011-.012-.024-.011-.011-.035v-.07l-.012-.07-.024-.071-.011-.012h-.094l-.023-.011-.035-.047-.035-.035-.035-.012h-.07l-.047.035h-.035l-.036-.105-.07-.059-.07-.011-.14.035H3.75l-.035-.012-.023-.011-.059.023-.046.011H3.47l-.07-.011-.118-.059-.058-.011-.105.023-.105.058-.094.059-.07.07-.059.105-.035.036-.058.011-.024-.011-.023-.012-.012-.035-.011-.07-.024-.012-.128-.012-.035-.023-.082-.047-.024-.023-.035-.024-.07.012-.059.023h-.034l-.024-.023-.035-.07-.023-.012-.035-.012-.036-.035-.023-.023-.011-.012-.024-.011-.023-.012h-.036l-.034.035h-.07l-.024-.012-.012-.023-.047-.024-.058-.011-.234-.012-.058-.035zm21.81 4.257h.036l.046-.023.024-.036.035-.034-.012-.012-.012-.012-.128-.07-.059-.023H23l-.035-.012-.129-.059-.024-.023-.011-.012v-.082l-.023-.011h-.036l-.035-.012-.023-.012-.012-.023-.011-.012v-.023l.011-.035-.011-.024v-.023l-.012-.012-.012-.011-.14-.106-.07.024-.421.327-.293.21-.023.024-.023.035-.012.023-.012.024v.035l.012.023v.07l-.035.082-.012.036-.012.081-.035.14v.047l.012.14.023.095v.034l-.011.047-.012.106v.07l.035.035.012.012v.105l.011.011.012.024.082.082.012.011h.011l.024.012.011-.012.012-.011.012-.024v-.011l.011-.012.024-.012.012.012.011.012.012.035v.058l.023.187.024.059.035.093.023.024.012.011.012.012.023.024.152.046.059.047h.046l.012-.012.012-.011v-.012l.023-.058.012-.024.012-.012.011-.011.012-.012.023-.023.012-.012.012-.012v-.011l.011-.047v-.07l-.023-.13v-.058l.023-.093v-.047l-.011-.094-.036-.175v-.07l.012-.035.012-.024.082-.034.011-.024v-.047l.036-.093.011-.035v-.024l-.011-.035v-.012l-.012-.023-.012-.047.012-.023.012-.035v-.035l-.012-.024v-.012l.012-.011.011-.012.012-.011.012-.012.023-.035.035-.07.012-.024.023-.012.012-.011h.035l.035.023.012.012.023-.012.012-.012.011-.035.036-.046h.035z"/></svg>