<svg xmlns="http://www.w3.org/2000/svg" viewBox="0 0 25 45"><path d="M2.557 12.863v.059l-.023.011-.035-.023-.012-.023-.047-.059-.011-.023-.012-.047.012-.012h.011l.047.036.024.023.023.023zm-.269-.128.117.163.024.059.011.07v.152-.035l-.011-.024-.012-.023-.023-.011-.036-.059-.058-.14-.047-.059-.035-.082-.012-.011.024-.036h.011l.024.024zm13.987-7.368.047.011.035.012.023.011.012.047-.023.047-.036.035-.058-.011-.023-.035-.024-.059-.035-.105.059.047zm.199-.082.058.023v.023l-.093.036-.035-.012-.035-.035-.036-.012v-.035l.117-.012.024.024zm.409-.258-.035.036-.058.011-.07.012-.036-.023.024-.059h.082l.07.012zm-4.467-.9.047-.012.07-.012.058.012.023.035-.023.024-.07.023h-.094l-.046.012.011.023.012.035.012.023-.024.024-.035.012h-.035l-.035-.012.023-.024-.023-.07v-.023l.023-.012.036-.011zm.175-.363.012.035.023.035.024.036.035.023-.047.012h-.047l-.047-.012h-.046l-.024.012-.047.035-.035.023-.011.035v-.035l.011-.023.012-.024-.012-.023V3.87l-.011-.012.07-.012.058-.035.035-.023zM.897 44.008V12.922h.035l.105.023.105.058.024.012.023.035.012.024.011.035v.023l.024.012h.07l.047.035.023.047.012.058-.012.047-.012.047v.058l.012.047.047.058v.047l-.023.059-.047.093-.059.14.059-.011.07-.14h.058l-.023.047-.012.046v.059l.012.035.082-.34.047-.011v-.047l-.024-.164v-.035l-.023-.023-.012-.059-.011-.14-.036-.175v-.07l.012-.024.047.024.035.046.012.07h.023l.047-.07h.093l.082.047.047.07.269.082.047.047.011.012.035.14.036.023.07.035.023.024.024.047.035.082.023.046.012.035-.024.106-.011.035.116-.082.047-.012.036.012.011.023v.082l.012.047.023.011.047-.011h.082l.012-.023-.012-.047-.012-.024-.164-.187-.023-.035-.059-.152-.023-.175-.023-.036.023-.023.035-.07.012-.035.023-.152v-.024l.047.012.059.047h.117l.093.023h.082l.07-.023.059-.023.011-.012h.035l.012-.012v-.012l.012-.023.117-.082.011-.011.024-.012.047.023.081.035-.011-.07.035-.14-.024-.047-.023.082-.047.047-.163.035-.246.129h-.094l.082-.117v-.024h-.023l-.082.047-.047.023h-.035l-.035-.023-.105-.082-.012-.035.023-.047-.058-.035-.07-.047-.047-.058-.047-.117v-.035l.012-.024h.035l.105-.011h.117l.07-.012.024-.058.023-.024.106-.058.034-.035h-.058l-.07.023-.059.023-.081.07h-.059l-.105-.023h-.105l-.012-.011-.012-.012-.023-.012h-.035l-.047-.023-.152-.13h-.059v-.01l-.011-.036-.012-.011h-.012l-.035-.012-.011-.024-.012-.035-.012-.011-.129-.07-.023-.024.047-.222v-.012l.07-.082.023-.023v-.058l.012-.036.012-.046.023-.035.117-.118.035-.035.024-.046v-.176l-.035-.058v-.024h.011l.035.012.035.023.047-.035v.024l.012.035.012.023.023.012.023-.012.036-.011h.023l.012.046.046-.07v-.082l-.023-.07.035-.035v.082l.07.023.152-.035.07-.023.047-.059.023-.082.012-.081-.012-.047-.023-.035-.035-.024-.023-.035v-.035l.023-.047.047-.07.14-.105.059-.058-.035-.059-.012.024-.024.023v.011l-.023-.011.023-.047-.011-.047-.012-.082.012-.046.058-.164.047-.094.012-.035v-.117l.011-.035.036-.023.023-.012.023-.012.024-.07.011-.047.024-.035h.023l.024.024v.152l.023.023.047.024.093.035.035-.024.153-.047.058-.035.129-.117.058.035.07-.082.14-.198.059-.059.035-.035.059-.011.046.023.059.047h.047l-.024-.07-.023-.024-.059-.035-.046-.023-.059-.012-.023-.012-.035-.047-.036-.07-.14-.175-.023-.012h-.082l-.012-.023v-.292l.012-.047.023-.035.012-.047-.012-.082v-.082l.035-.047h.036l.023-.011.023-.023.012-.024.035.035.012.035.011.024.059.023.058-.012.094-.058.047-.012.046-.023.047-.047.024-.07.011-.047v-.164l.024-.082-.012-.058-.023-.047v-.047l.023-.058h.035l.035.023h.047v-.047l.012-.035.011-.011.036-.012.034-.035.036-.012.035.012.093.047.047.023-.035-.058-.023-.036.011-.046.024-.024.023.024.105.21.035.012.024.012.023.011v.035l.023-.011.024.011.023.012.024.012.011-.012v-.012l.012-.011H5.2l.024.011h.081l.012-.023.012-.023-.21-.059-.012.012H5.07l-.011-.024-.012-.011v-.012l-.035-.047h-.012L4.99 6.9h-.012v-.012l.023-.012h.094l.023-.023.012-.023-.012-.012v-.023l-.023-.012h-.058l-.012-.012v-.035l.07-.175v-.047l-.035-.058v-.036l.023-.011.047-.024-.012-.023-.047-.035-.011-.012-.035-.012v-.011l.07-.047h.093l.082.023.059.059.047-.012.07.012.07.023.047.024-.035.058v.035l.035.094v.163l.011.059.012-.035.012-.035v-.035l.035-.024.082.059.093.152.059.058-.012-.035v-.023l-.011-.012.046-.035.047.012.105.058-.023-.07-.07-.047-.07-.047-.047-.058-.035-.047v-.035l.011-.011.059.011.047.012.081.035.047.023-.011-.047-.036-.034-.046-.059h-.024l-.047-.012h-.011l-.012-.023-.011-.023-.024-.036-.047-.011-.023.023-.035.012-.047-.035-.012-.024.012-.023.012-.023-.012-.047.082-.023-.023-.036.023-.035.082-.035.012-.023.011-.024v-.011h.047l.012.011.011.012.024.012.245.035.059.035.011-.047-.023-.035-.035-.058-.012-.035.012-.14-.012-.048-.07-.082-.012-.035.012-.058.024-.035.046-.024.047-.011.023.011.047.047h.035l.024-.047.035-.011.023.023.024.047.035.035.058-.023.07.07.047.023.023.012.024.035.023.035.059-.012-.047-.058V5.73l.047-.035v-.023l.011-.058v-.036l.024-.093.012-.094.011-.023.023-.024.024-.011.023.011.012.059.023.035v.152l.024.117.047.093.07.07.093.07.047.024.058.024.059.023h.117l.105-.035h.059l.035.012.058.023.024-.012.222-.023.199-.035.093-.035.047-.035.07-.047.023-.024h.036l.023-.011.023.011.012.024v.035l.012.023.058.036.105.046.07.035.06.012.046.024h.035l.059-.024.093-.058.094-.082.035-.059h.023l.117-.035.012-.035.023-.07.012-.023.035-.012.035.023.012.035.011.047.012.082h.058l.059-.047.07-.023h.035l.024.012.023.023.082.152.012.058.011.012v.035l-.011.024-.024.011-.023.024-.012.023-.012.012v.093l.047-.058.07-.07.047-.082-.07-.187v-.117l.035-.094.07-.035.059-.012.152-.093.046-.024.036.012.081.047.082.035.105.023.106.012.093-.012-.023-.023h-.082l-.023-.012-.024-.023-.023-.024-.105-.058-.036-.047-.023-.058v-.106l.07-.374v-.035l-.011-.047-.024-.035-.105-.07-.012-.023.012-.047.105-.105.035-.047.036-.094.023-.035h.058v-.023l-.128-.047-.094-.012-.047-.023-.035-.035-.047-.023-.023-.047-.011-.024.011-.011.012-.047-.023-.024-.036-.011-.023-.023.012-.059h-.047l-.047-.082-.164-.082-.046-.011-.117-.024-.059.012-.093.058h-.059l-.07-.011H9.34l-.012.011-.023.024-.023.011-.024.036-.011.011h-.024l-.012-.011-.011-.012-.012.011-.082.06-.046.022-.047.012-.059-.012-.035-.035-.035-.023-.023-.012-.012-.023-.012-.024-.011-.035-.012-.023.012-.012h.035l.023-.011v-.024l-.047-.035-.07.012H8.71l-.024-.07h-.011l-.024.023-.035-.012-.012-.023v-.035l.047-.024.035-.011-.011-.047-.024-.012-.07.012h-.035l-.012-.023.012-.036v-.023l-.047-.012h-.035l-.07-.023-.035-.012-.024.012-.058.023h-.023l-.129-.011v-.012l.023-.023.035-.012.047-.012-.047-.07h.035l.059.024.035.011.023-.035-.023-.047-.035-.058-.012-.059.024.012h.046l.024.012.035.023.011-.012.012-.023v-.012l-.023-.011.011-.047.024-.024.012.024.011.011.035.047.082.117.012.012h.012l.046-.024.059-.034-.012-.047-.023-.047-.012-.07.047.023.012-.012-.024-.058v-.047h.012l.023.012.047.011.023.024.024.035.035.047.094.035-.012.07.023.024.035-.012.024-.024.023-.011.012.035v.012l-.024.046-.011.024v.023l.011.035.012.035-.023.07v.047l.023.012.024.012h.011l.012-.012V3.39l.023-.035.024.059v.164l.058.058.082.012v-.059l-.035-.058-.012-.047h.047l.035.023.023.012.024-.035v-.035l-.024-.024-.046-.046-.012-.012-.023.012h-.012l-.012-.024v-.011l.024-.024v-.093l-.012-.024-.024-.046.024-.024-.024-.058-.034-.059-.024-.023-.035-.024v-.058l.035-.035.07.023.035.047.012.047.035.035.035.023.024.024.035.116.023.047.059.024.011-.035-.035-.094-.012-.105.012-.047.058-.023h.036l.011.023h.012l.023-.023v-.012l.024-.047.011-.023.012.023v.035l.094.187v.024l-.012.012.023.046-.023.105.035.012.024-.012.023-.046.023-.105.07-.036.07.047.07.106.048.105-.012.035v.011l.012.024h.035l.011-.012v-.012l.024.012.023.035.023.024.012.058.117.082.059.082.035.105.07.082.105.023.059-.023.058-.047.047-.047.023-.082.024-.011h.023l.023-.012.035-.035h.012l.012-.012-.012-.011v-.035h.059l.058.035.047.023.023-.07-.011-.058-.024-.036-.058-.058.011-.024.024-.011.012.011.07.012h.011v.012l.012.023h.024l.011.012.012.011.011.024.036.058.011.012.059.035.07.082.058.094.036.07h.011l.023.012.024.011.023.012v.035l-.011.07v.035l.07.094.105.21.023.035.047.047.047.035.058.012.14.012.06-.024.023-.082.035.012.07-.012h.035l.047.024-.012.023-.047.012-.035.023-.023.047-.012.035.024.024.046.011h.082l.012-.023.023-.047.024-.023.035-.012.023.012.012.035-.012.023-.023.012-.012.012v.023l.023.012h.07l.059.035.035.011.023-.023.012-.012.047-.011.035-.024.023-.035.036.047v.082l-.024.094-.023.07.011.011.024-.023.023-.082.024-.035.07-.035h.012l.035.011v.036l.011.011.024.024.011.012.047-.024.047-.012h.012l.023-.035.035-.093.047.011h.094l.034-.011.036-.035.105-.117h.07l.023.011.012.012v.012h.024l.034.011.047.024h.047l.035-.047.047.058.012.036-.012.011-.035.012-.024.012-.023.035-.011.035-.07-.012-.06.035-.034.07.023.059.129.082.128.07.117-.058.059-.024.012-.035.011-.035.024-.024.035-.011.035.011.035.024.012.035.011.012.012.011.012.012v.082l-.012.011.012.036.117-.117.023-.012.012.012.035.093.012.024.011.023.047.012.023.012.012.034-.012.012h-.047l-.011.012-.012.023.012.012.023.023.012.012.012.035v.105l-.012.036v.046h.023l.024-.011.023-.059.094-.07.023-.023.012-.047V5.18l.011-.024.059-.023.152.14.093.059.13.035.245.023.093-.035h.059l.035.035.023-.047.07-.046.164-.164.024-.024.046-.023.07-.011h.059l.012.011v.035l-.012.059.012.023.011.023.035.036.012.023.012.035.011.012h.024l.023-.012h.035l.012.023.012.117.011.059.024.035.058.023h.152l.012.012.059.012.011.011v.024l.047.07.023.047.012.023.094.047.011.012.012.011.058.059.024.011h.035l.058-.035.047-.011h.035l.024.023.046.047.035.023.036.035.046.024.047-.024-.012-.046-.117-.059-.046-.07h.163l.07-.012.024.035.035.035.059.024.046-.024.047-.011.024-.024v-.023l-.047.023-.07-.011-.036-.024-.07-.035-.058-.011-.047-.036.035-.035h.07l.117-.058.012-.012.023-.023.012-.012-.047-.012-.011-.023.058-.047.07-.012.035-.046.059.011.07-.023v.012l-.024.046.059.024h.082l.058-.024.059-.023.023-.047V5.39l.059-.011v.046l.093.047.035.012.094-.082.012-.012.058-.023.023-.012.14-.093-.023-.024-.128.035h-.047l-.105.094h-.035l-.024-.035-.012-.047.012-.082.059-.082.011-.023h.07l.012.011.012.012.023.012.024-.012.011-.012.012-.011.023-.023.036-.024.046-.012h.047l.047.024.094-.059.093-.082.07-.046.012-.012.012-.035.023-.012h.035l.023-.012.024-.058-.012-.047-.023-.046-.012-.059.023-.035.059.012.058.023.035.023-.035.106-.047.093-.163.164-.082.105-.047.035-.082.012-.023.012-.012.023-.082.058.024.024.105-.047.058-.012.164-.023.047-.012.082-.035.047-.012v.024l-.036.023-.128.035-.07.036-.094.081-.07.094-.093.082-.024.023-.082.059-.047.046-.058.047.012.106.046.082.047.034.035.047.035.024.047.093.047-.105.035-.035.035.011h.023l.024-.07.023-.047.106-.081.093-.094.024-.023.011.011.023.036.012.023v.023l.012.012.023-.024.024-.046.011-.024.024-.011.035.011.023-.011.164-.164.058-.047v.047l-.035.058-.046.036-.035.023v.012l-.036.035v.011l-.011.036-.012.011-.082.047-.023.023-.024.024v.035l.012.023.023.012v.012l.024.07.047.023.046-.023.047-.024.035-.023.047-.023h.047l.012.058v.035l-.036.012h-.023l-.012.012v.023l-.035.07-.093.117-.012.023v.024l.012.035.011.023.024-.011.035-.012v.023l-.012.059.012.058.023.047.024.035.046-.023.012-.024v-.058h.059v.012l.011.023v.012h.035l.012-.012.105-.012.024-.011.023.023.023.047.012.012.059-.012.058-.012.094-.035.081-.07.047-.082.082-.21.082-.13.012-.046-.012-.047-.035-.035-.047-.011-.058-.012-.024.012-.07.011h-.105l-.023-.047-.036-.011-.058.011-.023-.011-.012-.047.012-.023.035-.012.082-.012.011-.058.14-.176.047-.035.047-.012.023.012h.024l.058-.082.07-.047.082-.081.024-.024.035-.012.023-.046.035.011.047.012.082-.023.035-.059.07-.012.035-.023v-.047l.012.012.024.035v.023l-.047.024-.035.035-.059.023-.023.012-.047.023h-.047l-.035.024v.047l.023.046.036.012.035-.035.046-.023.036.023.035.117.035.105.058.012-.011.082v.093l.023.07.058.047.024.047.082.07.023.059.012.011.07.059.07-.012.07-.035.059-.07-.024-.023-.012-.012-.07-.024-.047-.034-.023-.036-.058.036.023-.059h.07l.035-.024.082-.023.059.012.07.07.047.047h.058l.07.023.082.106.047.07.023.093-.011.07.046.012.059-.023h.035l-.035.058-.012.012-.023.012h-.07l-.059.035-.117.117-.175.222-.035.047-.024.023-.011-.047.035-.047.046-.07.012-.012v-.058l-.012-.023h-.023l-.023.011-.024.024-.011.012-.07.034-.012.082.023.106.035.07h-.047l-.023.012-.082.105-.058.152.047.07-.012.035-.059-.023h-.105l-.058.035-.012.046.012.047.035.036.012.058-.012.024.012.034-.012.024-.024.035h-.035l-.035-.024-.011-.035v-.046l-.024-.07-.012-.036v-.011l-.023-.012h-.035l-.023.012-.024.023v.035l.012.023.012.036-.012.035h-.047l-.047-.059-.035-.046-.023.023v.047l.023.093.012.047.012.023.093.07.047-.023.012.058-.012.06h.058l.117.07.07.035.012.058.035.058v.024l-.011.023-.024-.012-.023-.023-.012-.012-.023-.023v-.012l-.012-.011-.035.011-.058.082h-.036v-.093l-.035-.036-.035-.011v.011l-.011.024h-.024l-.023-.012h-.012l-.047.012v.012l-.011.035.011.023.012.023.012.012.011.012h.035v.035l.036.047.081.023-.07.117-.023.14-.047-.023-.047.012-.035.046-.012.07v.094l-.011.035-.035.024v-.024l-.012-.023-.012-.047h-.011l-.024.035-.093.035-.035.058-.047.094-.047.035-.023.036-.036-.012.012-.024-.035-.011v-.024l.059-.046v-.024l-.024-.035.012-.023h.035l.035.011.047-.023.012-.047-.012-.035-.047-.058.012-.07-.012-.047.012-.14v-.082l-.012-.036-.058-.011h-.024l-.035.035-.023.035-.024.047.012.035.035.046-.023.036v.046l-.012.024-.047.011-.035-.011-.035-.094-.035.012-.023.023-.024.024.012.046.023.047v.035l-.035.036-.011-.024-.024.012-.012.011v.035-.023l-.011.047-.035.012h-.047l-.047.07-.023-.059-.035-.093.058-.094-.011-.07-.024-.058-.023.011-.082.082-.047.117v.082h-.023l-.035-.024h-.012l-.024.024v.035l.024.129-.024.046h-.011l-.024-.058v-.082l-.023-.058-.058-.059-.036.012-.046.035-.024.117-.023.035-.012-.07-.023-.012-.047.023-.035.047-.012.047-.07.07v.105l.082.024h.023l.012.023v.035l-.023.012.011.035h.117l.012.023-.012.036v.035l-.058-.012-.024.012-.035.035-.058-.07-.047-.024-.058.024-.012.046.012.07v.07l.023.094v.024l-.012.023-.011.012-.024.011-.011.036v.058l.023.035.047.105.035.035.082-.035v.012l.011.035v.012l-.07.035-.023.07.035.059.093.035.094-.024.07-.047.094-.128.011-.024v-.035l.024-.023h.047l.011.012.012.011.012.024-.012.023-.059.047-.011.035-.035.129-.07.128.011.024v.046l-.011.059-.012.012-.012.011-.012.012v.117l-.07.093-.117.059-.047.48.012.151-.046-.011-.059.011-.035.024-.023.035-.012.012-.059.011-.011.012h-.012l-.059.035v.012l-.07.058-.07.082-.152.292-.023.059-.047.023-.058-.011-.047.058-.14.246-.059.093-.035.105.011.094-.046.023-.07.024-.059.035-.035.047-.012.035-.011.023h-.047l-.035-.012-.035-.011h-.024l-.035.023.047.012.024.035.011.105.012.094.117.28.058.082.21.2.083.034.093.035h.024l.046-.023.024.012.046.058.07.058.036.036.011.047.059-.024.058.024.047.023.023.035.024.023.164.082.07.058.082.094.093.082.094.035.035.012.105.058.047.035.082.07.023.012.035.012.059.023.082.059.105.047.047.035.023.023.012.012.046.128.024.2.012.046.035.023.116.094.047.023.129.012.058.012.13.14.07.047.034.035.059.047.058.011.024-.011.023-.024.035-.011.023.011.012.012.024.082.011.023.117.094.035.023.094.129.023.023.024.024-.012.047-.024.058-.011.035.023.058.047.012.047-.035.023-.047.024-.023h.046l.106.023.082-.011.035.011.023.012.047.047.023.011h.047v-.023l-.012-.035.024-.047.035-.035.105-.047.023-.011.047.082.094.081.117.059.116.047.047.035.024.011h.07l.023.012.14.105.024.024.012.023.07.094.175.128.059.024h.082l.011.023.012.035h.024l.034-.011.024.011.058.059.024.011h.035l.058-.011.024-.012.058.012.28.105.083.058.105.036.035.011.094.14.011.047.152.223.012.035.047.07.128.105.094.094.129.082v26.548H.897ZM20.93 15.074l.011.035.047.023.035.024.012.023v.047l-.035.047-.082.105-.024-.012-.035-.023-.035-.036-.023-.046-.012-.059.012-.058.046-.024.047-.023zm.338-.059.047.024.035.046.012.035-.035.024-.023-.012-.024-.035-.023-.012-.035.012-.012.023.035.059v.012l.012.011v.012l-.012.012-.011.011-.036.012-.046.047-.035.011-.024-.011v-.07l.024-.059v-.058l-.024-.082h.129l.046-.012zm.726.292.011.024.012.012.024.011.034.012-.023.082-.023.047-.047.07-.07-.035-.012-.035-.012-.035-.011-.024-.024-.012-.046-.011-.012-.012-.035-.094-.012-.023v-.082h-.082l-.012.047h-.023l-.012-.023.012-.059v-.047l.012-.035.023-.035.035-.047.024.047.023.024.012-.012-.012-.07.023-.012.024-.035-.012-.07.024.012.023-.012.023.035.012.07.047.023.035-.023h.011l.012.047.035.012v.245zm-1.205-.573-.035.07v.13l-.035.058-.035-.012-.047.012-.023-.023-.024.023-.011.011-.036.012-.023-.012h-.012l-.023-.034.023-.012.012-.035-.012-.035-.023-.024.047-.035.011-.012.012-.023v-.035l-.012-.024.012-.011.047-.012.058-.012.047-.023h.047zm.725.13-.023.01-.024.013-.011.035.011.035-.023.011h-.012l-.035.024v-.023h-.012l-.011-.012h.023v-.012l-.023-.023-.012-.024.012-.011.011-.012.012-.012v-.011l.012-.024.012-.012-.012-.011-.024-.024-.011-.011.023-.047.024-.035.035-.035.035-.036-.024.07v.059zm-2.947-1.942v.058l-.012.023-.035-.011h-.046l-.059.047-.035-.012-.012-.012.024-.023.011-.023.035-.024.012-.035v-.012l-.023-.011-.012-.012h.023l.012-.035.024-.012.046.012.035.023zm2.725-2.83v-.036l.012-.011h.011l-.011.011-.012.024zm-1.357-.305v.06l-.023.022-.035.012h-.047l-.011.047h.046l.012.023.012.035.023.036h-.047l-.023.035v.046l-.023.047-.024.012-.035.023h-.058l.011-.023v-.023l.012-.012.012-.024-.024-.035-.047-.105-.023-.023-.058.023-.012.058.012.07v.059l-.082-.047-.012-.023-.012-.246.094.047h.035l.012-.035.011-.058.024-.059.035-.047.047-.011h.023l.035.011.035.012.012.023.011.024.036.023.023.012.024.012zm1.731 1.275-.012.012-.011-.012h-.012v.047l.012.023v.024h.011l.024.023.012.023-.012.012-.035.012-.012.035.012.035.023.023h-.047v.024l.012.023-.035-.035h-.035l-.012.012-.011.035-.094-.047-.035-.012-.047.024-.023-.024-.059-.023-.105-.011-.047-.012-.035-.012-.023.024-.117.058-.105-.012-.468-.175h-.012l-.047-.047-.023-.012-.035.012-.082.023-.07.047-.035.012-.012.011h-.023l-.012-.011.012-.035.011-.012.059-.035.035-.023.07-.036.035-.023.035-.07.024-.035.011-.024-.011-.023-.024-.059-.023-.081-.012-.164v-.093l.047-.153.012-.082-.024-.035-.023-.035-.023-.046.011-.035.035-.024.047.012.058.07.024-.023h.105l.035-.035-.011-.047.023-.047.012.011.035.06.035.023.035-.059.012.012.035.023v-.07l.035.024.047-.012.011-.035-.035-.035-.023.023-.012-.047V9.87l-.023-.036h-.047l.012-.023.011-.035-.011-.012-.035-.011.011-.024.024-.012h.058l.035.012.012.012-.012.012v.058l.012.011.012-.011.011-.012.012-.011.012-.024h.011l.035.012.047-.07.012-.035.012-.012.058-.012.035-.023.012.047v.07l-.023.047-.082.034-.012.036v.058l.035.023h.093l-.023.024-.035.058.024.035v.036l.011.023.035.035.035.012.14.023.036-.012.035-.023.035-.047v-.058l-.012-.012h-.023l-.024.012.024-.024v-.011l.035-.106.047.024.081-.012.036.012.011.011.024.036.023.046v.035l-.023.024-.082.082-.023.035-.047.152-.094-.024-.082.036-.058.07-.023.082.011.058.023.024.024.011.035.023h.012l.011.012.024.012-.024.012h-.023l-.023.011-.012.012v.023l-.047-.011-.023.011-.012.035v.047l-.023-.035-.036-.012h-.023l-.035.024.012.035v.035l-.012.082.024.105.011.035.012.012.035.012h.117l.012-.012-.012-.012v-.047l.023-.035.047.024.164.128h.023l.035-.023.024-.023.011-.036.012-.035.012-.046h.023l.023.023h.036l.046-.012.035-.011-.023.023-.023.023zm-2.128-2V8.98l-.035-.035-.012-.047-.058-.046.058.012.035.058.047.012.035.058.047.082.011.012.012.011.024.012.011.023-.011.036-.082-.059v.058l-.035-.011v.046l.023.059-.035.07-.024.059-.023-.035v-.036l.035-.046-.012-.035-.023-.024-.023-.058zm1.777-3.649.012.024.012.058-.012.047.023.023-.023.024-.023-.012-.012-.023-.035-.047.011-.07zM9.75 5.402l.059.035.012.07-.024.058-.047.012-.128-.093.011-.036.036-.023.046-.012zm10.186-.246.07.024-.035.07-.081.07-.094.035h-.047l-.023.023-.023.024-.036.023h-.046l-.047-.012-.035-.023-.024-.023.012-.024.012-.023-.012-.035-.012-.024.047.024.024.011.023.012.023-.023.047-.047.024-.024.035.012h-.012l-.012.035v.024l.012.011h.023l.047-.011.024-.012.046-.012.047-.093zm.456-.222.024-.07v-.082l.012-.059.058-.046-.012.046-.046.129v.035l.011.012v.023l-.011.024-.012.023h-.012v-.012zm.375-.398.035-.023h.012l-.012.023-.012.035-.047.047-.035.023-.011.036-.047-.012-.094.012-.011-.024.023-.035.012-.012.058.012.035-.012.035-.023zm-1.696-.105-.012-.058.07-.059.117-.058.082.023-.093.105-.035.058-.059.012zm-8.712-.164h.046l.012.012.012.047v.035l-.024.035-.012.023-.023.024-.035.011-.07.012h-.07l-.035-.023-.047-.047-.035-.058-.012-.06.059-.046h.035l.035.012.023.012.035.011.024.012.082-.012zm9.928-.363.082-.046.035-.035.024-.047.011.07-.011.047-.047.047-.152.093h-.024l-.011.012-.036.082-.128.058-.023.024-.012.011-.012-.011h-.023v-.012l-.035.012-.024.047-.047.034-.07.024V4.29l-.093.07-.047.024.012-.011v-.024l.023-.082.024-.011.035-.012.046-.024.036-.035.023-.058.035-.047.047-.023v.023l.046.047.047.035.024-.023.011-.024.094-.117v.012l.011.012.012-.047.035-.024.082-.046zM4.92 4.431l.023-.012.07.035.117.094.035.035v.07l-.012.035-.023.024-.117.058-.14-.012-.059.024-.07-.035-.082-.035-.093-.024-.07-.011-.047-.012-.059-.047-.046-.012H4.31l-.058.024-.129.023-.234.094-.07.011h-.093l-.07-.011-.047-.035-.035-.047-.012-.024-.012-.023.024-.035.023-.012.058.012.036-.023.011-.047-.023-.117.023-.058.035.011.082.047.07.011.059-.011.047-.047.046-.058-.023-.059-.023-.222.023-.035.012-.035v-.035l-.012-.035-.023-.024-.024-.012-.035.012-.047.012.07-.117.024-.035.035-.023.058-.047.036-.024.07-.128.035-.035.047-.012h.058l.047-.012.047-.035.011.058.024.082.035.07.07.106v.023l-.035.07-.012.035.012.106.023.035.13.082.046.07.012.07-.012.082-.012.07-.023.047v.023l.023-.012.024-.011.011-.012h.07l.082.035zm2.607-.784v.14l-.023.024-.023.012-.059-.024-.035.012-.035.059-.023.082-.012.093.035.07v-.023l.012.058-.047.024-.058-.012-.036-.012-.011-.011-.047-.036-.035-.011-.024.011-.128.27-.059.046-.035.059-.023.011h-.07l-.07.047-.036.024-.011.035-.024.023-.269.14-.304.258-.058.023-.047-.012-.047-.082-.07-.058-.093-.047-.14-.047-.13-.07-.011-.011-.047-.012-.058-.023-.059-.024-.047-.035v-.012l.024-.011v-.012l-.012-.012h-.047l-.117-.117-.081-.047-.024-.023-.023-.047-.024-.011-.046-.012-.059-.012-.047-.023-.023-.047-.012-.187-.012-.047v-.011l-.034-.012-.012-.012-.07-.082-.012-.047-.059-.292-.011-.047v-.011l-.012-.012-.012-.012-.011-.023.011-.024V3.39l.012-.023.012-.024-.059-.082-.035-.035-.011-.058.011-.07.012-.059.023-.047.047-.035.094.129.187.199.023.058.023-.023.024-.023.023-.024h.035l.047.012.035.023.024.047v.035l-.012.047-.082.07-.012.058.024.036.035.011.023-.023.024-.012.105-.117.058-.023.024.035-.035.082.011.023.024.012.058.082.012.035.07-.129.164-.047.152-.023.082-.07.035-.058h.082l.093.011.035.035.012.024.082.023.012.023.023.117.011.035.024-.035.047-.222.035-.023.047-.012.046-.035.094-.082.047-.023.023.046v.059l.024.058.011.047.117.164v.023l.035-.023-.011-.047-.036-.093v-.106h-.023l-.023-.011v-.024l.011-.035.012-.07.023-.047.036-.047.058-.035.059-.023.046.023.035.047v.07l-.011.012-.024.035v.035l.024.012.035-.012.023-.023.012-.035.011-.024h.036l.023.012.012.023.023.012.035-.012.059-.023.023-.012.035.024.035.035v.058l-.011.047.058.023.012.059v.07l.023.058.012.024.012.011.011-.011.047-.023h.047l.023.011.012.035zm13.648-.994-.047.14-.035.13-.035.093-.012.082-.011.011h-.024l-.058.035-.023.082-.082.082-.024.117-.047.012-.058.117-.117.14-.023.035-.024.012-.011-.024-.012-.011-.024.011-.035.047-.046-.023.046-.035.012-.035-.047-.024.047-.035.082-.058.082-.059v-.023l.047-.047v-.07l.011-.047.082-.128.105-.13.082-.023.035-.105.024-.046v-.07l.035-.024.023-.023.012-.036-.047-.035.047-.058.012.012h.023v.011l.012-.035.023-.012zm-11.157.328.012-.035h.012l.023-.012.023-.012v-.035l-.023-.105v-.023l-.035-.012-.023-.024-.012-.035-.023-.035-.012-.023.035.012.047.011.023.024.023-.024h.047l.036-.011.023-.036v-.058l.023-.047.035-.035h.047l-.012.035-.035.047v.07l.012.035.035.07h-.012l.012.024.023.035.012.035v.059l-.023.011h-.024l-.023.012-.012.058.047.012.047.012.046.035-.058.023v.035l.024.059.011.07-.011.07-.059.117v.082l-.094-.094v-.093l-.034-.082-.036-.07-.117-.14z"/></svg>