<svg xmlns="http://www.w3.org/2000/svg" viewBox="0 0 45 60"><path d="M2.194 47.226V20.678l.164.187.105.058.129.117.082.059.093.035.047.023.07.012h.024l.011.011.035.035.012.012.047.012.152-.012.082.035.117.059.117.047.14-.047h.292l.07.082.024.011.047.012.07.047.035.023.14.024.094.058.07.012.269.023.094.023.081.059.059.175.082.059.175.082-.047.093v.14l.024.14.035.095.117.233.082.094.093.07.106.035.222.012.093.035.035.012.059.058.093.047.024.024.035.034.117.082.105.117.07.047.07.024.07.011.223.059.058.011.035.024.035.035.246.082.023.035.059.093.093.094.024.012.304.023.316-.035.432-.094.047-.023.024-.012.023-.035.058-.011h.117l.047-.024.035-.023.07-.059.024-.011.058-.012.023-.024.024-.011.082-.047.07-.082.047-.023.117-.024.023-.011.012-.047.011-.035.036-.035.058-.024.059-.011.058-.012.023-.024.036-.058.07-.199.023-.234.035-.105.012-.023.058-.07.012-.083.012-.023.023-.035.023-.175-.011-.047-.012-.059-.012-.046.024-.047.245-.304.094-.246.012-.011h.07l.023-.024.047-.082.152-.152.012-.035.011-.047.035-.082.024-.187.035-.046.035.011.058-.105.024-.07.011-.058.012-.047.012-.035-.012-.024-.023-.012-.012-.023.012-.058.011-.036.059-.07.012-.047.011-.058.047-.105.012-.047v-.117l.012-.023.023-.047.011-.058.153-.258.011-.058-.047-.047-.081-.293-.012-.023.023-.023.047-.047.012-.023v-.117l.082-.55.128-.456.21-.515.013-.047.011-.093.012-.047.023-.035.035-.012-.011-.058.023-.035.047-.035.035-.035-.012-.047-.012-.047.012-.035h.059l-.012-.047.012-.058.012-.059.011-.058-.011-.059-.024-.058-.023-.035-.036-.036v-.023l.012-.023-.058-.082-.024-.047-.152-.702-.011-.163v-.047l-.047-.094-.012-.058.012-.117.023-.105.152-.421.024-.117.011-.106-.011-.128L11.55 14l-.047-.082-.07-.07-.14-.188-.047-.222.023-.245.14-.55.06-.129.01-.058.012-.024.082-.105.024-.047.07-.187.011-.058.036.011.023.012.024-.012.023-.011-.023-.047v-.035l.034-.035.012-.035v-.024l.024-.058.011-.024v-.023l-.011-.035-.012-.023v-.012l-.012-.012-.012-.012-.034-.011-.012-.024-.012-.011v-.024l-.023-.023-.024-.024-.035-.07v-.046l-.023-.188-.024-.116h-.011l-.012-.012-.023-.012-.012-.023.012-.024.046-.093.036-.047.023-.047.011-.046.036.046.047-.023.046-.047.094-.047.058-.058.047-.07.012-.047.011-.035.059-.176.023-.07.012-.047.023-.023.024-.012.011.035-.023.07h.023l.035-.07.047.024.035.035.035.047.024.163v.117l.012.059.011.023.035.023.07.13-.011-.048.011-.058-.011-.058-.035-.094-.024-.117-.023-.035.222-.07.047-.035h-.14l-.07-.024-.06-.011-.034-.059-.024-.023-.128-.047h-.024l.035-.047.094-.047.059-.047.058-.023.035-.011.012-.012h.105l-.082-.024-.035-.035h-.035L12.38 10l-.035-.024-.047.012-.082.012h-.07l-.035-.012-.035-.023-.035-.035-.035-.07-.024-.024-.034-.023-.106-.035.106-.07.046-.047-.023-.012-.117.012-.035-.012-.047-.035-.011.012h-.012l.012.058-.012.164h.07l.035.011v.024l-.023.012-.059-.012-.117.058h-.058l-.024-.058.012-.047.257-.573.035-.164.024-.047.047-.011.093.047.047-.012h.023l.035-.012-.023-.012-.024-.023-.011-.023V8.97h-.012l-.011.023-.012.012-.024.023-.023-.012-.012-.023.012-.035.023-.117.047-.105.047-.152.082-.14.105-.106.105-.023-.023.046-.012.047v.047l.047.152v.105l.094-.152.023-.023.035.011.117.07.035-.081-.012-.023-.046-.024-.035-.07-.024-.023-.023-.024h-.07l-.024-.093.012-.13.047-.221.117-.14v-.036l-.012-.046.012-.059.315-.982v-.27L13 6.352l.035-.082.024-.094v-.234l-.036-.222.012-.082.058-.058.13-.024.011.024.035-.035.047-.012.058-.012h.047l.07-.011.035-.035.07-.082.094-.105.012-.036.011-.035.036-.128.023-.047.035-.035h.164l.046-.047h.024v-.012l.012-.011h.011l.012.011v.047l.035.023.093.047.047.024v.023l-.011.023-.012.024-.012.023-.023.024-.047.011-.012.012-.023.023-.023.059-.012.023-.023.012-.047.012-.024.011-.011.07.011.059v.07l-.035.058.059-.011.047-.047.035-.058.011-.059.024-.023.058-.024.07.012.024.035.023.129.012.012.023-.012.035.012.024.046-.024.082.012.059.035-.059.059-.035h.058l.047.023.011.024.012.082.024.023.023.035.023.035.035.094.012.07v.082l.024.058.011.012-.011.023-.024.047v.14l.012.07.047.059.035-.011.023.035.024.058.011.035v.024l.035.058.012.024-.012.023-.012.023-.023.035-.058.106-.024.07.012.035.035.023v.059l-.012.117.012.023.035.047.012.035.023.35-.023.223.011.047.024.035.14.117h.035l.094.082.047.023.07-.012.058-.011.094-.047.07-.012.047.024.14.128.024.012.035-.012.082-.012h.023l.023.036-.023.023-.035.012h-.059l-.257.41-.012.01-.023.012-.012.012-.011.047.011.012.012.07v.035l-.012.023v.024l-.023.023.012.012.011.012.012.011-.023.047-.012.058v.106l.023.023.047.012.094.011.093-.011h.024l.046.047h.024l.105.082.012.011.011.023.024.047.012.035.011.164.012.058.023.047.047.047.035.023.094.024.046.012.036.011.046.035.07.059v.023l-.07.07-.023.047.023.024.012.023-.094.14v.047l-.035.14v.152l-.011.047.046-.07.024.023.035.012.035.012.023-.024.035-.023h.035l.024.012.035.011.07-.011.035-.024.035-.023.047-.012-.129.234.047.082v.117l-.023.21.058.328v.35l.012.036.012.023.093.07.012.036.023.046.024.024v.058l-.024.164v.047l.035.023-.011.059-.07.14-.024.093-.023.164-.035.106-.012.046.012.047.046.094.012.058.012.024.082.116.011.024v.082l.012.035.012.023.012.024.023.023.152.129.023.035.024.163v.047l.023.059.012.257.105.35.082.165.058.081.07.07.047.024.035.024.035.011.047.012.082.011.023.012.024.047.023-.035.035-.012h.059l.117-.07.093-.035.117-.129.047-.035.047-.011.035-.047.035-.047.012-.035.011-.07v-.14l.047-.036.012.024.011.023.012.012.012-.012.012-.012.011-.011h.012l.047.093.011.012.036.012h.058l.035.023.351-.164.023-.011.047-.13.012-.022.011-.012v-.059l.012-.011.024.011.035.012.035.012.023.023.012.024.012.011.023.024.105.163-.011.047-.012.059v.116l.023.047.047.012.058-.035.024-.035.011.047-.011.046-.012.047-.023.024-.012.035v.14l.012.047.023.023.07.047.012.035.035.058.012.036.058.011.105-.023h.047l.035.035.035.047.036.046.058.012.175.012.035.012.024.023v.047l.012.023.011.024.047.035v.011l.012.14.011.024.024.024.152.105.047.058.07-.035.047.024.058.046.07.024h.035l.047.035h.07l.07-.024h.036l-.036.082.024.059.152.175.047.012.046-.024h.082l-.035.07-.187.293-.035.047-.024.187.012.047.035.082.012.082.024.023.034.012.036.011.035-.011.023-.024.023-.082.047.035.012.059-.012.047-.105.047-.047.046-.012.047.047.035-.023.035-.012.024v.058h-.023l-.035.023-.024.012-.011.047-.012.058v.047l.023-.023h.024l.035.105.011.058-.034.024-.012.012v.023l.012.023.011.012v.012l.094.07.011.023.024.059v.047l-.035.058v.012l.023.011.094.223.023.035.012.046-.024.13v.034l.024.035.011.012.012.012v.023l-.012.035-.035.047-.012.035.012.047.024.035.058.058.105.153.059.093.023.094v.105l-.047.175-.023.094.012.012.058.035v.011l.024.07v.036l-.024.035-.082.082-.035.093v.199l-.035.094v.035l.024.023.011.023.035.012.047-.023.047.035.023.058.012.047.012.035.093.094.035.093.047.047v.012l.012.046.035.047.035.035.117.117.035.012.058.023.024.024.012.023.011.059.012.023.023.023.059.036.023.011.047.129.047.035.035.047.011.023-.011.035-.023.012h-.036l-.023.023v.035l.012.024.035.035.023.035.012.023-.012.035.012.024.023.012.024-.012.011-.012-.023-.058v-.094l.023-.012.024-.011.07-.07.023-.035.047.034.023.024.036.012.058-.059.023-.023.012-.012.023-.012h.036l.035.012.011.035-.011.035-.012.012-.023.023-.012.012v.012l.012.011v.012l-.024.059-.012.023-.023.012-.023.023-.047.094-.012.035-.011.058v.059l.023.035.035.023.023.024.106.198.011.059.012.058v.059l.012.035.093.14.07.176.035.046.047.036.024.011.011.035v.28l-.011.024.023.07.07.094.082.07.024.035.011.059-.023.035-.059.058-.035.047-.011.059.011.175-.011.012-.024.023-.023.035.011.012.024.012v.035l-.012.023v.023l.047.059.012.023-.024.035-.011.094-.012.012v.047l-.07.187-.129.234-.012.081-.023.07-.012.047v.035l.012.047.012.035.011.035-.011.059.035.082.199.234.046.035.035.011h.082l.035.012.012.023.012.047.012.082.058.187-.012.059.059-.024.058.012.035.024.024.011.035-.023.035.012.093.023v.128l-.023.106-.023.093-.07.176-.036.327-.011.024v.011l-.012.024v.035l.012.035.046.058.012.024.012.023.035.023.012.024.035.082.199.14.046.047.047.082.047.046.047.024.093.035.047.023.058.07.012.024.024.012h.046l.176.117.093.023.14-.058.036.035.046.081.07.059.036.035.035.012.047.035.07.07.082.035.093-.023.035.011.059-.046.081-.082.024-.047.012-.047v-.058l-.012-.059h.012l.011.047.059.047v.058l.011.012.024.023v.024l-.012.023-.023.082v.035l.023.035.059.07.011.035.129.164.035-.035h.047l.152.035.047.024.035.011.012-.011.07-.024h.35l.07-.047v-.046l-.023-.059-.023-.047-.059-.035-.023-.046.012-.024.047.035.058.07.129.304.152.2.023.046v.059l.023.081.024.07.035.059-.012.07.035.07v.047h-.093l.035.024.035.023.058.093.188.2.081.023h.176l-.059-.164-.023-.023v-.024l-.012-.187.2.059.058.058.034.257.036.082.058.059.082.058.058.023.047.012h.117l.012-.012.012-.023v-.023l.023-.012h.012l.023.012h.035l.035-.035.035.023.082.082.012.035.023.023.176.024.152.058h.058l-.012.059.012.046.082.082-.059.024-.058.023.035.024v.046l-.035.024.07.023.024.024.07.093.011.012.024.011.093.059.07.035.012.023-.011.035.035.012h.046l.047-.023.035-.024v-.023l-.023-.012h-.047l-.047-.023.035-.024.036-.011h.035l.023-.023.023-.024-.011-.035-.024-.024-.035-.011-.023-.012-.012-.035v-.047l.012-.035.047-.011.023.023.035.035.035.012h.07l.024-.012.023-.035.047-.035.023.023v.152l.024.082.035.07.058.024-.011.035-.012.035.023.023h.035l.035-.023v-.035l.012-.035.012-.047.023.023.012.024v.023l-.023.023.058-.023.023-.012v.035l-.011.036-.024.023-.023.023.058.035h.012l-.012.024v.023l-.011.023.011.024.094-.047.058-.011h.035v-.059l.07.035.06.07-.036.059.012.011.035.035.011.012.012.035h.012l.023.012h.024l.023.059-.012.046-.011.035v.036l.023.081.059.059.128.093-.058.012.011.047.059.058.023.059-.023-.012-.023-.012-.012.012-.024.012-.023-.035-.023-.012H30.6l-.023.023-.024-.035-.023-.035-.023-.023h-.035l.011-.035v-.07l-.011-.036-.012-.011-.035-.024H30.4l-.023.012v.023l-.012.036-.011.023-.024.012-.047.011-.035-.011-.011-.024-.012-.023-.023-.024-.059-.011v.047l.035.07.024.047-.024.07-.047.058-.058.035-.058-.012.023.047.011.047.059.07v.012l.012.023.011.012.012.012h.047l.023.035-.011.035-.036.058.036.024.035.082.058.023.012.023.047.059.011.023.012.012h.023l.035-.012.012-.012.035.012.012.024.012.011.011.035.024.13-.012.01-.012.012-.011.024v.058l-.012.024-.012.011-.011.012h.046l.035-.047.047-.082.035.036.024.023.035.023.035.012.082-.012h.035l.023.024.059.058.023.024.012-.012.011-.012.012-.012h.082l.035.024.012.059-.047-.024-.047-.012-.035.012.035.047v.047l-.023.046-.012.024.058.011.082-.035h.047l.012.047.023.024.106.011.035.035.011.035.024.047.023.023h.035l.012.024.07.093v.106l-.094.152v.105l.082.152.024.024.023-.012.012-.047.012-.012h.035v.012l.011.023v.036h.059l.012.034.011.036-.011.011-.012.024.023.058.047.105-.012.024-.023.012-.023.011-.036.012.036.035.07.012.047.023-.047.047-.047.023-.035.035-.024.059.024.082h.035l.105-.082.023.035.036.012.046.011h.024l-.012.094.012.035.047.023v.012l.011.047.023.023.059-.023.024-.035.023-.082.023-.023.024.023.011.023.024.07-.14.14-.012.048.011.07.047.105.023.035.012.023v.024l-.012.035h-.023l-.023.012-.035.023-.024.047.012.058.023.059.036.058.011.024.023.011.012.024v.058l-.012.07v.094l.024.058.105.176.012.047v.128l.023.059.106.175-.047.035-.012.024v.023l.059.012.011.058.012.012.058.082v.023l-.046.059v.023l.011.012.117.047h.012l.023.023.024.047.023.035.024.035.046-.023.012.046.012.059v.117l-.012.058-.035.047-.035.035-.024.059.07-.012.106-.059.082-.07.058-.058.035-.105.035-.024.047.024.07.093.035.058.012.047.012.024.222.187.012.035.023.093.058.094.059.07.058.023-.058-.257-.175-.433-.047-.058-.024-.059v-.058l.059.024-.024-.047-.035-.047-.011-.035.023-.059.023-.046.047-.117.024-.094.023-.035.035-.035.023-.012.047-.012.094-.035.012.024.046.023.012.012v.023l.059.129.011.047.023.035.036.023.023.012.024.012.011.011.012.035v.07l.011.012.07.047.012.035-.046.035.046.082.059.047.222.07.035.012.07.058.035.024.082.035.047.023.023.023.047.059.035.035.047.023.129.035.058.036.199.175.012-.023-.035-.047-.047-.07-.024-.082.024-.047v-.023l-.106-.07-.023-.153.023-.175.059-.117.023.012.07.047.047-.036.047.024.012.046-.035.024.011.023.012.024-.012.012-.023.011.023.012.036.023.023.024.023.023.012-.023-.012-.036-.012-.046.012-.035.035-.036.012.059.012.07.023.059.023.046.024.012.07.024h.023l.024.011v.07l-.024.012-.07.094-.047.023-.011-.07-.024-.012-.035.024-.011.035.046.046-.035.07.07-.011.036.012v.128l.011.047.024.012.035-.012.023-.035.012-.035v-.105l.012-.07.023-.012.035.035.012.07-.024.164.012.07h.058l.012.058.035.07.012.047-.012.059-.035.105-.023.117-.024.105-.011.14v.024l-.012.012.012.035v.011h-.024l-.035-.011-.07.011-.012.012.012.035.023.012.047.035.012.012.012.035-.012.023-.012.024.012.035.012.011.011.024v.058l-.046.234v.106l.105.058-.024.047v.046l.024.047.023.035.012-.011.012-.012v-.012l.046.059-.011.07-.059.07-.058.035.07.28.07.071.082.117.023.035-.023.035-.059.012h-.105v.012l.07.011.047.024.035.035.012.058.035.047.059-.012.046-.046.024-.024.047.012.081.047.07.011.036.035.035.094.082.035.081.082.036.035.023.035.047.094.023.047v.07l.012.035.011.023.035.059h.012l.024.035.058.023.105.035h.07l.012.012v.023l.012.024.012.023.011.012h.059l.023.011.012.024.023.047.012.023.152.164.058.07.024.07.011.012.024.011.012-.011.011-.035.024-.012h.035l.047.023.034.024.047.035.024.011.011.012.012.035v.012l-.012.012-.011.011-.012.012.012.059.011.023.024.023.047.024v-.024h.011v-.035l.024-.058v-.035l.011.011.012.012.012.012.07-.024.058.047.059.059.058.035-.011-.106-.024-.046-.035-.047-.035-.024-.07-.046-.012-.024.012-.035.047-.012.058-.011.035.011.035.036.024.035.035.023.058.012v.011l-.058.059.023.047.047.011V41.6l.023-.011.082-.07v.093l.024.105.023.094.035.058.07.059.035.023h.07l.012-.023.012-.012v-.023l.011-.012.012-.012.012.035v.059l.012.035.023.023.047.047.011.012.012.058.164.492.14.304.07.046.106.176.07.082.41.292.046.012.058.012.152.046.082.07.082.094.059.128.023.13v.245l.012.058.187.293.011.023.036.035.105.059.012.058-.012.024-.024.011h-.07l-.035-.011-.012-.012-.023.012-.011.011v.012l.011.012.059.011.07.012.047.035.035.035.023.047.047.035.046.024.13.023.07.023.058.024.047.023.011-.035v-.07l.024-.012.023.012.012.07.035.012.129.023.023.012.012.035v.07l.035.269-.012.023-.105.059-.012.023-.012.035-.011.035.046-.023.14-.094h.048l.023.047-.023.035-.047.012-.012.023.024.024.023.012.023.023-.023.047-.094.093-.046.047-.012.07.023.164v.082l-.058.011.023.035.035.036.082.046-.035.024h-.023l.023.047.047.035.047.023.058.012.094.175.023.059.012.117v.07l-.024.035-.011.023v.117h.023l.07-.152.012-.035v-.093l.012-.059.023-.047-.023-.035-.012-.023.047.023.011.035.024.082.047.152.034.047.07.035h.083l.07-.023-.024.035-.046.082-.012.058-.047.105-.023.047-.024.035-.023.129-.012.023-.046.152v.035l-.082.304-.012.094v.058l.012.047.035.047.035.023h.035l.023.012.024.035-.035.094-.024.105-.011.55.011.047.012.023v.011l.082.024-.012.14v.059l.012.093.012.035.023.012-.023.024-.024.046v.106-.024.117l.024.094.14.362.011.094-.058.058-.093-.047-.094.024-.094.059-.07.081-.023.035-.023.07v.059l.058.023h.082l.023-.011.035-.024.012.024-.012.128-.023.035-.035.024-.047.035-.035.058.012.047.035.035.035.035.047.024.105.035.046.035.024.047.023.14.012.059.047.046.047.012h.035l.035.012.023.035.024.035.023.082.012.023v.047l.058.058v.024l.012.187.011.047.024.035.058.058.012.035.012.07.011.024.024.011.012.012.07.082.023.047v.035l-.023.047.035.011.035-.011.035-.059h.012v.059l-.036.152v.222l-.034-.082-.024.024-.023.058v.047l.011.046.024.024.023-.024.023-.034.024-.024.012.094.011.269.035.058.047.059.059.105.011.012-.093.07-.234.187-.07.035-.082-.024h-.035l-.2.059-.046-.012-.058.012-.035.047-.012.035-.012.023-.012.012-.011.012-.023.011-.059.094-.035.035-.035.012h-.012l-.023-.012-.024-.012h-.011l-.035-.011-.14.011-.013-.011h-.011l-.152-.012h-.024l-.07-.035-.047-.012h-.116l-.012.012-.024.035-.011.012-.07.035h-.047l-.035.011h-.047l-.246-.117-.023-.011-.07-.07h-.023l-.012.011-.012.012v.012l-.011.023v.023l-.012.012-.024.024-.023.011-.035-.011-.023-.012-.012-.012-.012-.012-.012-.011-.011-.012v-.07l-.023-.035-.047-.035-.024-.012h-.023l-.012.012-.023.011-.082.082-.035.024-.012.011-.035.106-.011.011v.012l-.012.012-.047.035-.082.023-.117.012-.035.012-.023.011-.059.059-.047.047-.023.023-.023.012-.012.011h-.023l-.082-.011h-.035l-.024.011-.292.152-.035.035-.012.024-.058.047-.024.011h-.035l-.023.012h-.024l-.011.012-.012.011v.012l-.012.012v.035l.07.07.024.047v.047l.011.035.012.023.012.012.059.058.07.082.023.035v.047l-.035.035v.012l-.012.023v.023l-.012.082v.106l-.011.035-.035.082v.105l-.012.012-.012.023-.011.012-.012.011-.012.012h-.07l-.035.012-.07.047h-.047l-.058-.024-.047-.012H38.4l-.012.012-.023.012-.012.012-.012.035-.023.082-.012.023h-.023l-.012-.012-.023-.023h-.012l-.012-.012h-.058l-.012-.012h-.012l-.011-.011-.082-.176-.012-.011h-.011l-.012.011-.047.024-.094.07-.023.012-.023.011h-.059l-.012.012h-.023l-.047.035h-.023l-.023.012h-.024l-.023.011v.012l-.012.035-.058.117-.024.059v.105l-.011.012-.059.035-.023.023-.047.07-.012.035-.023.012-.059.035-.011.012v.023l-.012.024-.035.011-.059.024-.023.011-.07-.023-.012-.035v-.094l-.023-.023-.047-.024-.012-.023-.011-.105v-.117l-.012-.012-.012-.023.024-.035-.024-.047-.035-.187-.175-.117-.094-.07-.058-.035-.059-.012-.093-.012-.07-.012-.036-.023-.023-.047v-.175l-.023-.059-.047-.011-.07-.012h-.059l-.035-.035-.035-.047-.047-.035-.105-.023-.058-.024-.094-.07-.105-.035H35.5l-.234.059-.117.011-.328-.011-.117-.024-.081-.058-.141-.164-.105-.082-.07-.023-.047.011-.059.035-.058.012-.164-.012-.035.012-.14.047-.117.035-.105.047-.047.011-.082-.011h-.047l-.117.023-.093-.012-.293.012-.047.012-.034.012-.059.035-.035-.035-.047-.012-.093.012-.047-.024-.012-.035-.011-.058-.047-.035-.047.023-.234.035-.047.035-.093.199-.047.058-.035.024h-.059l-.269.152h-.023l-.012.023-.035.035-.035.024-.047.023-.023.023-.012.036-.023.023-.047.047-.047.023-.07.023-.058.012-.047.024-.024.07-.023.128-.023.07-.047.047-.059.047-.07.023-.07.07H10.03v-8.83zm40.44 4.128.047.012.117-.012-.059.129-.046.14-.14.632-.012.012h-.036l-.035.011h-.046l-.036-.07v-.047l.012-.082.012-.011.012-.012.011-.023.012-.024-.012-.023-.023-.035-.012-.023.012-.047.023-.094.012-.035-.012-.047-.035-.117.024-.046.046-.082.024-.035v-.094l.011-.035.012-.023.047.011.023.024.024.035zm-.187-.222v-.047l-.023-.081-.024-.07-.023-.036-.023-.035-.024-.058-.012-.187.012-.176-.012-.07-.011-.035.011-.035.047-.035.094-.012.058-.047.024-.023.035.012.011.046v.07l-.105.351-.023.129v.14l.011.035.024.082v.082l-.012.047-.012.012zm-1.181-6.023.082.094.035.07-.035.035-.07-.117-.035-.058zm1.064-.807.012.059-.024.058-.023.035-.012.047-.011.058-.21.503-.27.608-.21.585.011.07.035.094v.105l-.046.082-.07.024-.106-.117-.047-.082v-.047l.012-.047-.047-.14.012-.082-.082-.023-.023-.082v-.082l.035-.047.058-.035.024-.082.023-.187.023-.035.024-.023.023-.012.012-.024.047-.093.023-.035.024-.082-.036-.152.036-.07-.012-.035-.024-.012h-.023l-.058-.035h-.024v-.035l.012-.035.047-.036.292-.21.082-.07.07-.094.047-.082.047-.093.011-.117-.023-.117-.047-.094-.07-.117-.082-.081-.07.011.152-.199h.023l.082-.07.094-.07.023-.012.024.117-.024.351.012.059.047.152.023.035.023.011.106.082zm-5.216-3.357.035.059.012.07-.012.035-.058-.011-.012-.07-.012-.047-.07-.082-.011-.094v-.011l.011-.024.012-.023h.023l.012.093.023.035zm-.269-.444.047.047.024.07.011.082-.011.035-.012.012-.012.011-.012.024-.011.012-.012.011-.012.012h-.105l-.012.012h-.023l-.023-.035-.036-.036-.034-.035-.024-.035-.023-.105-.035-.047-.106-.14-.07-.059-.035-.023-.035-.059-.082-.116-.058-.082-.059-.059.105-.035.012-.023v-.012l-.012-.023.024-.035.023.023.024.012.023-.012.023-.012h.024l.011.012.012.023v.047l.047.012.117.023.023.035.024.012.047.012.034.011-.034.047.046.012.035-.035.035-.059.035-.035v.082l-.023.129-.012.058.012.07.023.082.036.059zm-4.023-3.754.024-.012.023.024.059.058-.035.012v.047l-.012.035-.047.082-.023.035-.024-.035-.011-.012.011-.024.012-.035-.012-.023-.011-.023.023-.036.012-.07zm2.117-.187.012.011.023.012.012.012.012.023-.012.035-.024.012-.023.012-.012.011-.011.024-.012.012-.012.023-.023.012-.047.011-.035-.011v-.035l.035-.047-.047-.035h-.011l-.012.011h-.023l.023-.046.035-.047.035-.059-.011-.047-.024-.023-.012-.023.012-.012.035-.012.023.012.024.024.012.023.011.035.012.023.012.024v.023zm-1.625-.655-.012.094v.07l.035.058.012.035v.07l-.024.094-.035.07-.047.024-.035-.012v-.024l.012-.023v-.047l-.012-.011-.011-.024-.012-.035.012-.058.011-.07.024-.059.035-.035-.024-.035.012-.035.024-.024zm.982-.854.07-.012h.024l.034.012.07-.035-.023.047-.023.047-.023.035-.035-.012-.094-.059zm.023-.175h-.011v-.012h-.012v.023l-.012.012-.023-.012-.012-.011-.023-.024h-.024l-.011.012-.012.012-.012-.024v-.012l.012-.023.012-.011-.012-.024v-.058h.012l.035.046.058.024.047.035zm-3.157-3.52.012.058v.035l.023.035.023.035-.058.023-.024.036-.023.046-.058.035-.012-.011-.012-.024-.012-.011v-.035l.024-.012h.035l.023-.012.035-.046.012-.047v-.059zm-.07-.293-.012-.012-.023-.023-.036-.035-.035.082-.011.023-.047-.047-.035.012-.024.023h-.023v-.117l-.047.036h-.058l-.012-.012.023-.035.07-.07.012-.036-.046-.011.023-.059.012-.07.023-.07.035-.035.012.047.035.058.012.035-.012.082.023.023h.047v.024l.047.07.047.047.023.035zm-.281-.48-.012.024-.082.082.012-.059v-.023l-.012.012-.011.011-.012-.011v-.012h-.012l-.011.035-.024-.012-.012-.011-.011-.024-.012-.023.012-.047.082-.094h-.012l-.012-.011v-.035l.035-.024h.012l.012.012.011.012.036-.024.011-.011.012-.012.012-.035.046.047-.023.058-.047.047-.023.047v.023l.035.035zm-1.322-.49.059.046.023.059-.011.07-.024.058-.012-.011-.011-.012h-.024v-.082l-.011-.047-.012-.023zm-4.151-2.352v-.034h.012l.011.011.012.035v.059l-.012.035-.011.023-.024-.035-.093.07-.059-.035-.012-.035-.023-.023-.012-.024.012-.035.035-.012h.059l.023-.034.023.011h.012zm-1.415-2.023.012.024.058.035.012.011v.035l-.012.012-.024.012h-.011l-.035.093-.024.036-.046.046-.047-.035-.094-.011-.047-.036-.023-.058-.023-.14-.012-.047-.07-.105-.023-.036-.117-.07-.024-.023-.023-.035-.024-.035.012-.047h.07l.14.047.106.035.011-.047-.011-.082.035-.093.012.07.035.035.105-.012.035.024-.012.035-.035.047-.011.046v.059l.011.046.059.082.023.012h.047l.011.012.012.035-.012.012-.023.011zM6.276 22.034l-.024.035.012.035.035.024.012.023-.012.047-.047.023H6.17l-.023.012-.012.012-.011.011H6.1l-.023-.011-.012-.012v-.035h-.047l-.046.023-.035.035v.059h-.024v-.023h-.012v-.012l-.035-.082.012-.035.047-.012.058-.047.059-.105.047-.047.011-.023v-.047l.035.024.106.082zm-1.24-.573.047-.023.07-.024h.059l.011.047-.023.012-.07.012-.024.011v.035l-.023.024-.012-.012-.012-.035v-.047zm1.684-1.052.024.035v.047l-.012.046-.012.035v-.011l-.023-.024-.012-.023-.024.035-.011.023.011.024v.023l-.011.012h-.023l-.047-.024-.059.012-.058.012-.035.035-.024.047-.035-.035-.046-.106-.024-.011v-.012l-.023-.024-.024-.011-.011.011-.012.012-.047.059H6.16l-.059.011h-.023v.035l.023.012.035.012h.024l.023.023v.024l-.035.023h-.023l-.024-.023h-.035l-.023.011-.012.024.012.082v.023l-.012.023-.035.047v.012l.012.011-.012.036-.023.035-.024.011-.035-.011-.035-.059-.035-.012-.035.024-.035.105-.024.024-.046.011-.059.047-.047.012-.175.011-.023-.011-.012-.035-.082-.106-.035-.023.023.058v.07l-.011.059h-.024l-.023.035-.023.035h-.024l-.012-.082-.011-.058V21.1l.011-.024.024-.012.012-.035.011-.035v-.058l.012-.059.023-.035.035-.046.059-.047.023-.036v-.058l.012-.024.023-.023.024-.011h.023l.023-.012.059-.07.023-.035.047-.024.058-.011h.117l.293-.059.152-.093.105-.012h.047l.023.023.024.035.023.035.035.024.047.011h.105l-.011.012-.012.035v.012l.046.012.024-.035.012-.036zm6.584-15.532.07.07v.024l.012.035-.012.011h-.07l-.058.024h-.036l-.034.023-.024.024-.012.035-.011.035-.082-.035-.024-.024L13 5.053l-.035-.059-.035-.07.023-.082V4.83l.012-.011h.012l.046-.012h.012v-.012l.024-.023.046-.024h.012v-.011l.023-.058.059.023.047.058zm.023-.234.082-.012.07.047.012.059-.058.058-.07.024-.059-.047-.012-.07zm.082-1.158.059.024.035.058.023.047-.011.035-.047.035-.07.117-.035-.011-.036-.024-.035-.012-.046-.011-.024.011-.035-.023-.023-.035-.012-.035-.012-.035.036-.012.011-.012.012-.023V3.52l.047-.035.058-.011zm-.269-.163.012.035v.023l-.012.117-.023.023-.012.024-.023.047-.035.023-.035-.012L13 3.567l-.035-.035-.035-.023-.035-.035v-.047l.117-.176h.035l.035.024zm11.648 23.39h.082v.024l-.023.035-.024.012h-.07l-.035-.012-.023-.012h-.035l-.047.012-.035-.012v-.047l.035-.07-.012-.047-.012-.035.012-.023.035.023.024.024.023.011.023.035.036.059zM14.614 1.44l.035.011.035.036-.035.034-.047.024-.023.035-.024.012-.046.011h-.188l-.034-.011-.047-.024-.024-.047.024-.046.07-.024h.07l.07.024.07-.012zm-1.427-.34.187.059.012.035-.012.035h-.058l-.094.012-.105-.024-.082-.035.035-.058z"/></svg>