<svg xmlns="http://www.w3.org/2000/svg" viewBox="0 0 35 42"><path d="M1.743 19.53V2.56h31.341v24.209l-.035-.047-.046-.047v13.157l-.047-.023-.62.059-.059-.012-.058-.024-.047-.023-.046-.047-.024-.011-.058.011-.024-.023-.023-.035-.024-.012-.046-.035-.21-.187-.048-.035-.105-.047-.047-.023-.011-.012-.012-.047v-.011h-.012l-.035-.012-.035-.047v-.023l-.012-.035v-.047l-.046-.106-.13-.222-.01-.058-.118-.222-.07-.07-.199-.164-.07-.082v-.024l.07-.011-.011-.07-.047-.059-.047-.035-.035-.012-.047-.047-.035-.011h-.012l-.023-.012-.012-.011-.023.011v.023l-.012.024.012.012-.093-.047-.503-.714-.07-.163-.07-.129.011-.035.047-.023.047-.036.011-.081-.035-.082-.047-.07-.035-.082-.011-.117-.024-.059-.047-.046-.058-.036-.035-.035-.012-.046.304-.164.07-.07.07-.117.047-.117.012-.14-.012-.433-.011-.035-.328-.807-.245-.55-.176-.421-.047-.047-.093-.082-.105-.164-.012-.046-.035-.035-.48-.492-.187-.187-.105-.058-.082-.094-.082-.047-.093-.093-.082-.035-.082-.094-.082-.035-.129-.094.106-.034.117.058.9.854.258.245.14.164.175.234.082.199.175.374h.012l-.012-.14-.14-.34-.035-.128-.012-.047-.304-.41-.047-.046-.105-.035-.046-.047-.07-.082-.492-.456-.047-.012-.163-.14-.024-.035-.117-.059-.023-.023-.024-.058.024-.047.035-.012.047.023.011-.081.024-.047.07-.082.059-.047.046.024.082.082.035.023.047.012.047.023.011.059-.011.081-.024.047v.035l.012.047.023.012h.047l-.011.058-.024.012-.023.023-.024.035.012.047.035.012.14.023h.047l.059-.047v-.128l.023-.059.035-.058-.011-.047-.188-.175-.035-.024-.093-.023-.035-.024-.012-.035.035-.023.082-.023.012-.012.011-.012.012-.012h.047l.152.036.023-.012.035-.035v-.047l-.023-.035-.023-.035-.012-.047.035-.117-.012-.047-.023-.023-.035.023-.059.07-.035-.128-.093-.082-.117-.047-.117-.011.012.023.011.012.012.011h.023l-.035.047-.128.082-.047.035-.047.035h-.14l-.047-.023-.129.058-.047.035-.023.07.012.094.023.035.129.035.035.035.023.035-.023.035-.059.012-.035-.012-.046-.023-.153-.035-.023-.012-.023-.058-.024-.012-.023-.012-.199.012-.035.035.047.047.047.023h.175l.035.012.023.012.047.058.024.012.035-.012.035-.011h.023l.047.035-.012.023-.058.023h-.082l-.059-.011-.023-.012-.023.012-.047.035h-.035l-.047-.012-.094-.058-.058-.012-.117.012-.222.058-.058.024-.024.046-.023.047-.047.047-.094.07-.093.047-.246.035-.409-.012v-.023l-.047.023-.047.035-.058.012-.059.012-.058-.012-.059-.023-.128-.129v-.035l.011-.035.012-.082.024-.059.035-.046.058-.035.257-.13.07-.058.07-.105.07-.117.048-.058.035-.024.046-.011.047-.024.059-.035.023-.035.012-.07v-.129l.012-.07.011-.023.024-.012.011-.023.024-.047-.012-.035-.012-.035-.011-.024v-.035l-.012-.058.023-.187.035-.059.07-.105.024-.058-.012-.141-.046-.257-.012-.129.012-.269.023-.058.047-.012.046.047.024.058.012-.058-.012-.07-.024-.059-.046-.023-.035-.012-.024-.023-.023-.036v-.035l-.024-.011-.058-.024-.023-.011-.024-.036v-.093l-.012-.035-.093-.082-.082-.058-.023-.047-.047-.117-.023-.059-.094-.046-.047-.07-.047-.141-.082-.374-.058-.105-.082-.059-.047-.023-.011-.035.035-.07-.012-.059-.164-.21-.046-.047-.035.035-.012.07-.024.058-.093.152-.024.047v.059l.036.07.023.023.012.024.011.023-.105.164-.175.175-.012.047-.094.304v.14l-.011.035-.012.036.07.105-.035.058-.023.082-.024.07-.011.223-.012.046-.012.036-.047.081-.011.024-.012.035-.047.07-.011.023-.012.047-.023.14-.07.188-.024.093.023.094-.058.035-.012.035.012.117-.012.105v.024l-.082.034-.058.082-.023.024-.036.011-.14-.046-.094-.082-.058-.035h-.105l-.035-.012-.047-.023-.023-.012h-.14l-.06.023-.058.036-.082.105-.046.011-.187-.023-.059.023-.082.082-.035.082-.058.059h-.129l-.152-.047h-.059l-.151.093-.082.094-.106.035h-.093l-.047-.082-.012-.012-.035-.035-.011-.023v-.023l.023-.047.012-.035.023-.035.082-.047.035-.035-.023-.024.023-.023.047-.023.023-.012.012-.024.012-.046.058-.105v-.047l-.012-.07-.023-.047-.012-.023v-.036l.024-.046.058-.059.012-.035-.024-.059.117-.151.012-.059h.035l.164.082h.117l.222-.059.105-.011.059.023.023.024.035.034.129.024.035.035.047.023.07-.035.07-.081.024-.117v-.117l.011-.14.047-.094.012-.035v-.036l-.012-.081.012-.036.081-.304-.035-.081-.011-.117-.035-.082.011-.14-.011-.059-.059-.058-.035.011-.035.047-.047.023.012-.035.047-.14.023-.047h.012l.035.012.011-.012v-.012l.012-.035.012-.035.023-.07.024-.234v-.07l-.012-.07-.012-.07-.023-.07-.058-.094v-.023l.011-.024.012-.023.023-.012.059.035.035.012.035-.047.07-.152.023-.047-.011-.046v-.024l-.036-.07-.011-.035v-.012l.011-.047.036-.047.047-.058.058-.047.058-.023.024-.035.011-.035v-.035l-.011-.035-.012-.024-.023-.023-.024-.023.047-.024.035-.035.059-.082.128-.117.035-.023.094-.188.058-.105.047.012h.023l.153-.222.046-.094.07-.035.012.035-.035.047.024.047.07-.035v-.117l.011-.082v-.082l-.023-.047-.024-.07-.034-.105-.036-.047-.023-.047-.023-.035-.035-.058.011-.07.012-.047-.023-.047-.047-.058-.07-.094-.012-.105.023-.047.024-.059.035-.07.035-.047.093-.035.152-.105h.024l.023.012h.024l.035-.035.035.012.023.011.035.012.024-.023.023-.036v-.011l-.012-.012v-.129l-.011-.046-.012-.047-.023-.047-.036-.035-.023-.012h-.058l-.024-.011-.023-.024V23.6l-.152-.678v-.047l.035-.023.058-.035-.105-.105-.012-.012-.011-.024h-.024l-.011-.011-.035-.012-.024-.012h-.012v-.046l-.011-.024.023-.046-.012-.024-.011-.035-.059-.058-.023-.036-.024-.046.012-.047.035-.035-.023-.024-.024-.011h-.023l-.011-.012-.012-.023-.012-.07-.012-.012-.035.011v.047l-.011.07-.012.035.023.059v.21l-.023.07v.036l.07.023.024.035.023.047.011.035.012.129.012.21-.012.035-.012.024-.011.035-.023.07-.024.035h-.023l-.012-.012-.012-.011-.023.046v.059l.012.035.046.07.012.035-.023.024-.07.011-.036-.011h-.023l-.047-.035-.082-.07-.046-.012-.059.023-.058.059-.035.046v.106l-.012.023-.21.222-.047.035-.059.035-.047.036-.023.058v.082l-.012.058-.011.059-.129.222-.012.058-.011.246-.024.07-.023.059-.105.152-.036.058-.14.351-.07.129-.059.058-.046.024-.082.081-.059.024-.128.012-.164.046h-.012l-.023-.012-.035-.023v-.035l-.023-.035-.047-.047H22.5l-.047.035-.012.07-.011.024-.024.023-.023.024h-.023l-.024.023v.023l.012.036v.023l.152-.07.047.011-.14.082-.036.035-.047.036-.058.011h-.07l-.059.012-.046.023-.036.035-.046.036-.059.011-.035.012-.035.058-.023.012-.012.012-.07.035-.164.058-.035.035-.023.024v.023l-.012.07-.105.07-.07.082-.047.035-.117.024-.047.035-.164.14-.023.035-.012.024v.105l-.023.023-.035.047-.012.035-.023.082-.07.082-.164.316-.082.07-.164.07-.058.094.035.046-.024.036-.023.023v.035l.035.047v.128l-.023.106-.035.058-.035-.011-.012-.094-.035-.07-.07.023-.13.082-.07.012-.034.011-.047.047-.012.047-.012.093-.023.036.059.093.011.059-.035.046-.046-.058-.059-.012-.035.035-.023.082v.035l-.012.059-.012.035.012.035.047.047.023.035-.023.07H19.6l-.023.035-.011.024-.047.046-.012.012.012.035.035.024h.07l.058-.012.047-.024.047-.023.105-.105.012-.012.023.012.024.023.023.024.023-.012.012-.035v-.07l.012-.036.012-.011.035.011.011.024.012.035v.14l-.023.059-.035.046-.036.047-.035.047v.047l.07.21v.059l.012.011.024.047-.024.035-.07.012-.023.035-.059-.023-.047-.14-.035-.036h-.023l-.07-.035-.035-.012-.012-.023v-.023l-.012-.035-.081-.094-.106-.058-.105.011-.105.094-.012.07-.012.012-.011.012h-.012v.023l.012.035v.035l-.024.012h-.128l-.024-.012v-.117l-.047-.093-.233-.281-.094-.14-.059-.06-.07-.058-.117-.046-.035-.024-.023-.011-.082.011-.023-.011.058-.117-.012-.035-.046-.059-.094-.093-.093-.07-.047-.012-.047.012-.047.011-.058.012-.047.023-.047.035-.047.035-.035-.035.012-.047.082-.128.012-.047.011-.07.035-.047.035-.023.036-.047v-.024l.011-.046.012-.024.023-.011.024.011v.035l-.024.07.012.07.023.048.047.011.187.047.035.012-.046.035-.012.035.012.047.035.035.07.035.023.012-.047.035.036.035.046.047.059.035.035.023.023-.012.059-.035.152-.023.023-.035-.058-.024-.117-.023v-.035l.012-.058v-.036l-.012-.035-.024.012-.023.023-.012.012-.023.024v.034l-.023-.011-.024-.023-.012-.036v-.035l-.011-.023v-.023l-.012-.024v-.035l.047-.035v-.024l.012-.035v-.035l-.024-.07-.058-.094-.012-.046-.035-.41-.047-.175-.082-.129-.093-.011-.047-.059-.023-.035-.012-.035h.047l.035-.023.023-.035-.023-.047.023-.035v-.035l-.012-.024-.011-.035v-.14l-.012-.059-.035-.058-.07-.094-.07-.187-.036-.023-.058-.012-.047-.035-.187-.234-.164-.152-.152-.105-.023-.035-.059-.047-.023-.012-.047-.082-.011-.023-.082-.035-.024-.024.036-.023-.024-.058.012-.059.035-.07.012-.058-.012-.14-.012-.071-.011-.058-.082-.211-.024-.117-.047-.058-.081-.082-.094-.117-.023-.012-.07-.035-.024-.023-.023-.047.035-.024h.105v-.047l-.035-.058-.023-.058-.036-.035h-.058l-.164-.059h-.07l-.035.047.012.058.047.024.07-.012.035.012.012.023v.035l.023.023.023.012.024.035h-.024l-.023.012-.023.024-.024.023-.059-.106-.046-.034-.117-.024-.164-.117h-.093l-.059.024-.047.023-.07.023v-.023l-.023-.035-.024-.012-.011.012v.093l-.024.024-.035.023-.14-.128-.012-.047-.012-.07-.011-.059-.059-.152-.023-.035-.035-.012-.059-.011-.07.011-.023-.011-.035-.035.047-.036.081-.011.036-.035v-.059l-.012-.07-.047-.047-.035-.023h-.023l-.024.012-.012.023-.011.011-.023-.011-.047-.035-.106-.012-.035-.012-.023-.058.023-.012.035-.058.012-.023.082-.047.023-.024.024-.07-.024-.093-.047-.082-.105-.14v-.024l.012-.047h.035l.082.024h.199l.058.023-.023.047-.012.023-.012.035v.129l.047.012.012-.012.011-.07.024-.035.035-.047.047-.047.023-.023.012-.024.012-.07.035-.07v-.059l-.059-.222-.046-.105-.07-.094-.083-.082-.128-.128-.047-.012h-.035l-.023.012-.024.012-.023.023-.024.012-.046-.024-.024-.011-.058.023-.035.047-.035.046-.024.024-.07-.012-.047-.012-.035.012-.058.059-.012.035-.012.023-.011.012-.036.012-.034.011-.024-.011-.023-.012-.012-.035v-.024l.023-.035.012-.011v-.012l-.012-.035v-.012l-.011-.093.011-.024.024-.059.035-.07.035-.035.012.047.023.024h.047l.047-.047.011-.059-.035-.035-.082-.105-.011-.058-.024-.036-.117-.117-.046-.07-.012-.023-.035.012-.024.023-.023.023-.012.012-.035-.012-.023-.011-.012-.035v-.082l-.011-.012h-.012l-.047-.035-.058-.012-.024-.011-.035-.024.012-.012v-.035l-.012-.035-.023-.011-.024-.012-.023-.012-.012-.023.024-.024.023-.023.012-.023-.035-.036-.047-.034-.07-.012h-.059l-.047.023-.011.059v.07l-.024.058-.023.024h-.024l-.117-.059-.034-.023-.012-.024-.012-.07-.023-.012-.07.059h-.059l-.023.012-.012.035.012.035.023.012.059.011.058.024.047.046.012.036-.059.023-.024-.012-.034-.035h-.036l-.011.012-.012.023-.012.024h-.023l-.152-.012-.082-.023-.047-.024-.07.07-.023.012h-.024l-.046-.047-.047-.023-.059-.024-.023-.011-.035.011-.047.024-.023.012h-.012l-.012-.012-.011-.024-.012-.035-.21-.21-.06-.035h-.058l-.023.012-.012.023-.023.011-.035-.011v-.023l-.012-.047-.012-.035-.034-.024-.047-.011-.176-.14-.058-.083-.129-.105-.047-.012-.07-.011-.117.011-.129-.011-.187-.035-.058-.012-.117.023-.058.024-.047.023-.035.023-.035.059.011.047.035.035.036.058-.024.012-.023-.012-.059-.023-.058-.024h-.059l-.058.012-.129.047-.129.023-.116-.023-.094-.047-.094-.082-.14-.175-.07-.082-.41-.257-.362-.293-.643-.374-.503-.222-.433-.164-.117-.012-.105.047-.257.2-.421.14-.117.023-.246-.012-.386-.058h-.62l-.116-.035h-.281l-.059.011-.152.047-.35-.012-.492.082-.573.012-.163.058-.059.012h-.222l-.152.035h-.28l-.165.07h-.117ZM25.588 32.5l-.011.046.011.059-.011.046-.07.024-.036.023-.07.106-.023.023h-.059l-.058-.012-.059-.035-.082-.07-.046-.023h-.047l-.059.011h-.046l-.082-.035-.059-.012h-.058l-.105.024-.223.105-.117.024-.035.046-.023.059.012.07v.023l.011.012.012.023.012.024-.012.035-.012.023-.011.012v.012l-.024.035-.117.023-.164.117-.093.035-.035-.035-.07-.047-.117-.14-.094-.035-.117-.012-.128-.047-.035-.011h-.047l-.059.047-.023.058-.023.07-.082.023h-.035l-.094-.034-.047-.012-.07.023h-.035l-.035-.035-.176.07-.081.012-.082-.024-.047-.034-.023-.012-.035.012-.036.034h-.116l-.024.012-.023.035h-.07l-.047.012-.035.012-.024-.024v-.058l-.011-.035-.036-.07-.081-.106-.036-.011-.093-.024-.035-.011-.164-.152.012-.024v-.07l.012-.035.011-.024.024-.011.011-.024.012-.07.012-.035.011-.023.024-.024.012-.023-.012-.07v-.024l.047-.035.058-.023.187-.012.117-.07h.082l.035-.012.035-.035.024-.011.701-.117.059-.024.128-.058.351-.094.035-.023.035-.035.036-.035.046-.012h.035l.223.082h.046l.047-.047h.047l.07.012.047-.012.093-.035h.047l.035.023.059-.035.023.035v.036l-.035.023-.058.023-.036.047v.047l.036.023h.128v.024l-.058.081-.117.13.058.058h.117l.105.046.07-.011.106-.024.035-.011.012-.012h.023l.023.023.012.035-.012.024v.058l.012.07.047.024.058-.012.059-.023.035-.035.035-.035.023-.059.012-.058.035-.047.07-.012.07.012.117.035.106.058.046.012v.012l.024.105.012.035.035.012.046.012zm-4.397-2.14.047-.036.035.023.023.036.035.046-.023.024-.012-.024h-.058l-.047-.011-.012-.024zm-.713-.445.035.035.023.012.012.023.012.058.011.036-.011.035-.012.011-.024-.023-.07-.012-.023-.058-.012-.07-.023-.082-.106-.094-.034-.07.058-.023.047.023zm3.122-1.708.012.082-.012.082-.035.047-.035-.035-.012-.047.024-.035zm-7.367-2.397.011.07-.023.012-.035.011-.047.012-.059.094-.023.023-.023-.047.035-.093v-.082l.035-.024.082-.023h.023l.012.012zm-2.562-4.34-.058-.023v-.058l.047-.059.047-.046.046-.024.07-.023.07-.012h.06v.012l-.141.047.023.046.012.024-.023.012-.024.023-.012.035v.012h-.035z"/></svg>