<svg xmlns="http://www.w3.org/2000/svg" viewBox="0 0 15 15"><path d="m12.056 13.08-.059-.012-.035-.023-.152-.152-.024-.035-.023-.059v-.058l-.012-.023-.035.046-.035.047-.011.058.011.059.035.047h-.082l-.046.047-.024.058-.047.047-.058-.094-.187-.199-.012-.105.035-.012.07-.046.035-.036-.222-.093-.046-.023-.024-.047-.023-.07-.023-.07.011-.047.023-.024.094-.046.023-.012h.012l.012-.035v-.012l-.012-.012v-.046l-.012-.036v-.023l.036-.012h.07l.023.012.012.023v.106l-.012.047-.023.058.117.117.058.035.082.012h.023l.024-.012.011-.012h.059l.035-.011.035-.024.059-.058h-.082l-.047-.035-.035-.07-.035-.094h.047l.023-.023v-.024l-.07-.023v-.047l.011-.047V11.9l-.035-.024-.152.024h-.023l-.047-.035-.023-.012h-.024l-.081.023-.036-.011-.023-.035-.012-.024-.023-.023-.023-.012h-.047l-.012-.012-.011-.023V11.7l-.012-.035-.024-.035-.023-.012h-.023l-.14.047-.048.035-.035.035v.094l.047.128.105.21-.058.106-.023.035-.047.035-.152.047-.047.023-.023-.023-.036-.047-.023-.058v-.035l.035-.047.035.023.035.059.024.035.047-.024.023-.058.012-.059-.012-.035-.035-.023v-.059l.023-.14-.047.024-.046.035-.047.011-.012-.058-.023-.082-.035-.035-.059-.023-.046-.036-.141-.257-.012-.035h-.035l-.023.012-.035.023.023.035.024.035.023.012.047.058.035.07.047.118.058.105v.047l-.047.117-.023.081-.012.07.012.153-.024.011-.058-.035-.082-.082-.035.059.024.058.07.07.023.07-.023.036-.035.023-.059.047-.023.059v.105l.023.14v.199l-.023.047-.047.046-.059.024-.034-.024-.024-.011-.058-.024-.024-.023v-.023l.012-.036v-.023l-.035-.012h-.105l-.036-.023.036-.07.035-.059v-.023l-.012-.035-.012-.082-.023.07-.059.059-.046.035-.024-.012-.058-.047-.012-.023v-.152l-.012-.082-.035-.012-.047.035-.035.035-.023.059-.012.105.012.082.035.035.035.023.187.14.047.048.035.058.012.058-.012.024-.023.035-.035.024-.024.011h-.023l-.012-.011-.011-.024-.024-.012h-.047l-.058.012-.059.035-.035.047.164-.012.035.012.047.035v.023l-.059.07-.023.047-.047.094-.023.035-.035.023h-.164l.058.047.153.047.046.082-.152-.024-.047.012-.011.07.011.024.024.023.012.035-.012.047-.035.023h-.07l-.024-.023-.023.093.035.036.047.011.046.047v.059l-.034.046-.188.106h-.07v-.036l-.012-.035-.058-.035-.059-.012-.058.012-.129.059-.023-.012-.023-.059-.047-.081-.176-.094-.011-.023-.024-.059-.035-.152-.023-.058-.047-.035-.012.047v.081l.024.07-.035-.011-.012-.012-.07.059-.059.011-.292-.035-.047-.023-.058-.059-.047.07-.035.024H7.6l-.035-.024-.012-.034-.012-.047-.023-.035-.023-.012-.036-.012h-.046l-.035.024-.012.046v.047l-.012.047-.023.035-.024-.059-.023-.046-.023-.024h-.035l-.094.036-.023.011v.023l.011.059-.011.023h-.012l-.024-.011-.011-.012h-.023l-.141.047.012-.257-.012-.106-.058-.117-.152-.117-.024-.035.024-.047.047.012.058.035.047.012-.012-.035-.059-.082.047-.012.246.035.07.035.035.059.035.07.059.058.011-.046-.023-.07.012-.035.011.011.012.012h.023l-.011-.047.011-.012h.024l.012.012.035.024.035.058.023.012.023-.036v-.093l-.011-.094-.012-.046-.023-.012-.07-.059-.036-.058-.035-.023-.023.011-.07.164-.059.035-.058-.058-.012-.024v-.081l-.011-.012-.024-.012-.023.012-.024.023v.035l-.023.082h-.047l-.047-.047-.046-.047-.036-.058-.023-.058-.011-.059v-.082l-.012-.023-.047-.035-.058-.059-.012.024v.082l.012.046v.035l-.036.012h-.046l-.024.012-.011.012-.012.058.035.012.094-.012.035.012-.012.047-.035.034-.035.024-.106-.012-.035-.012-.035-.023-.07-.175v-.117l-.012-.012-.07-.07-.023-.023-.024-.024v-.058l-.011-.024-.012-.011-.035-.024-.012-.047v-.105l-.023.012-.024.011h-.058l-.035-.023-.012-.035.012-.082.012-.011.011-.024.012-.035-.023-.012h-.036l-.034-.023-.047-.047-.094-.187-.047-.035h-.163l-.024-.012-.093-.164-.059-.117-.058-.128-.047-.176-.035-.058-.012-.035-.011-.012-.047-.011-.012-.024v-.035l.012-.012.035-.07.012-.035-.036-.012-.011-.023-.047-.187-.012-.012h-.058l-.024-.047-.011-.046-.012-.035-.035-.012-.082-.012v-.035l.094-.129-.07-.07-.07-.117-.024-.152.023-.117-.07-.21-.023-.117-.024-.117v-.246l-.023-.082-.012-.058.035.035.047.047.035.058.012.047.011.058.036.024.093.023.035.024.012.011.023.047.012.024.012.023.011.035.07.023.176.14.023.036.024.035v.14l.023.129.035.129.024.035.011-.012.012-.082v-.245l.07.046.024-.011.023-.117.024-.059.046-.093.012-.035-.035.011-.035.024v.023H5.6l-.012.012h-.011v-.047l-.012-.023v-.047l-.023-.024-.035-.011v.035l-.012.023-.012.024-.047-.047-.152-.199-.046-.07-.047-.035-.012-.012-.023-.105-.035-.094-.012-.058.012-.059-.024-.023h-.023l-.059.047v.011l-.011.035-.012.012-.035.023-.012.012v.047l.012.035v.035l-.023.035-.024-.011-.093-.094.105-.246-.047-.292-.117-.27-.128-.174-.211-.2-.023-.011-.012-.023-.012-.094-.023-.012-.024-.023-.023-.024-.105-.21-.047-.047-.012-.035-.023-.023-.024-.024h-.058l-.023-.023-.012-.047V7.49l-.129-.375-.14-.234-.047-.105-.012-.023-.035-.012-.023-.023-.047-.059.012-.012.012-.011v-.023l.07-.036-.012-.081-.035-.106-.176-.327-.046-.07.023-.082v-.105L3.402 5.7l-.047-.058.023-.14-.047-.106-.14-.187.035-.012.035-.023.012-.035.012-.059-.047-.07-.012-.035.012-.012.047-.011.035-.07.035-.024h.047l.034-.023.012-.059.012-.105v-.105l-.047-.363v-.082l.023-.07.059-.07.012.058.023.047.059.082v.024l.011.07.012.011.012.012.023-.012.023-.023.012-.012.094.024.175.081.094.012.093-.012h.047l.035.036.035.035.035.023.082.035.047.082.023.012.024.011.07.024.047-.012.023-.035-.035-.047.246.012.058-.012.035-.058v-.082l-.012-.07-.023-.059.047.024.07.058.035.059-.082.035-.011.035-.012.035.012.035.011.035.105.07.035.035.036.024.035.011h.082l.046.012.094.059.07-.012.14-.059.024.13.105.08.129.048.233.035.047.023.024.07.011.059.047.058.082.082.047.035.058.024.059.011.128.012h.036l.011.023.012.047h.082l.058.024.094.07.07.023.047.035.023.024.024.011.105.024.245.117.374.047.176-.012.175-.047.152-.058.012.011.012.07.011.036.024.034.035.012.047-.023-.047-.047.023-.047.082-.07.035-.035.024-.058.023-.024.023-.023h.07l.024-.012.035-.012.047-.046h.058l.024.011.035.012.023.023.024.035.035.082.012.059-.036.035.024.058.046.012h.047l.047.024.023-.036.024-.011h.07l.023.011.024.012.035.012.035-.012-.047-.035-.035-.035-.035-.035-.129-.024-.046-.023-.036-.058-.023-.082.059-.129.105-.047.14-.023.105-.07.012-.012.023-.023.024-.012.035-.012.012-.012.011-.011h.012l.023.011v.024l.012.012.351.058.105-.058.2-.164.022.058.117-.058.035.035v.047l.012.023.012.012.082.011.011.024v.023l.024.035.093.024.106-.082.093-.117.164-.28.011-.048.024-.035.14-.058.047-.012.047.035.035.059.047.047.093-.036.059.036.058.058.059.035.082-.023.093-.047.07-.07.035-.082.012-.035.035-.082.012-.117.023-.035.024-.024.046-.034.012.023h.012l.07.011h.023l.012.024.023.058h.024l.047-.023.023.023.035.024.059.07.034.094.036.035.058.023.094-.012.023.012.199.28.07.14.035.071.012.07-.024.024-.035.023-.046.024-.036.046-.011.035h.035l.023.024.024.011.011.036-.046.14v.023l-.047.035-.012.094v.105l.012.07.011.047.012.024.094.117.011.046-.011.047-.117.094-.047.058.012.07.199-.187h.046l-.058.105-.129.445v.058l.012.059v.128l-.012.024v.035l.07.129.012.035v.152l-.023.082-.035.07-.012.058.058.222-.035.036-.058.058-.035.07.023.082.012.035.035.082v.023l.012.035.058.082.012.024v.035l.023.012-.035.116-.035.188v.175l.164.21v.012l-.012.012-.023.035-.082.105v.047l.117.047v.07l-.024.129-.011.023-.047.047-.012.023-.012.035-.023-.011-.035-.036v-.023l-.094-.023-.011-.024v-.035l.058-.035.012-.011.012-.024.011-.023.024-.035.011-.047-.011-.024-.024-.035-.035-.023-.023-.023.07-.035.035-.036.023-.058h-.081l-.047-.023-.07-.094-.047-.035-.176-.059.07-.058.047-.024.035-.011.036-.035.023-.047v-.058l-.082-.059-.012-.047-.011-.047-.012-.023-.035.023v.036l.035.07-.012.082h-.011l-.036-.035-.035-.012-.035.035v.047l.012.058.012.059-.024.011-.023.012-.024.012v.023l.036.035.011.012.024.012.035.023.128.023h-.257l-.07.035-.024.047-.011.082v.164l-.012.047-.093.093-.012.035v.047l-.012.024-.047.011.012.023-.012.047-.081.14-.047.083.035-.024.047-.058.023-.024.047.024.023.046v.059l-.07.07v.105l.023.164v.164l-.023.082-.023.046-.035.012-.047.07-.023.012-.036-.012-.035-.082-.035-.035v.047l-.011.035-.024.012-.035.012.129.163.011.07v.082l.012.024.012.012.012.011.011.012v.094l-.011.046-.012.047.012.058-.036.059-.058.035-.035.012-.047.035-.012.082v.082l.012.046-.012.035-.011.012-.012-.012-.012-.011-.047.093-.023.047.012.058.035.024.047.023h.058l.035-.023v-.024l-.082-.034.024-.07.07-.047.047.07.011.047.012.011.024-.011.035-.012h.023l.012.012v.023l.011.023v.035l.036.024.011.023v.023l-.011.024-.024.023v.035h.012l.012.012.023.023.011.012-.011.07-.023.024-.036.011-.035.035-.023.07v.188l-.035.046.058.083.012.034v.07l-.035.059h.058l.036.012.011.047-.011.058-.012.024-.024.011-.011.023-.012.036.035.035.012.035zm-1.731.386v.023l.058.082.012.035v.07l-.012.036-.012.034-.023.047-.012.024-.011.035-.024.117-.035.082-.023.023-.047-.012-.058-.046-.024-.012h-.035l-.011-.012v-.047l.011-.011-.011-.07-.024-.024h-.035l.023-.012.024-.023.011-.012-.058-.058-.024.047-.023.152-.035.07-.047.047h-.046l-.036-.059-.023-.07-.047-.058-.035-.036-.023-.035.011-.07.047.012.14.14.024.024.023-.024.012-.058-.012-.14-.011-.07-.024-.036.024-.023.011-.023.024-.012.023.023.047.07.023.024.024-.047.011-.024.012-.035-.023-.035-.012-.047.012-.034.058-.047.082-.117.047-.059.023.024zm.175-.749v.094l.012.035.023.035.012.047.023.094.024.081-.035.047-.07-.023h-.024l-.023.011-.036.024-.023.012-.011-.024-.024-.082.035-.035.035-.023.035-.059-.047-.046-.128-.024-.059-.035-.011-.047.035-.023.128-.024-.011-.023-.035-.023-.024-.024.012-.07.035-.07.035-.023.035.093.059.059zm1.93-1.87v.058l.011.035.036.035.034.023-.058.07-.129-.011-.081.011.035.106.07.07-.012.011-.163.036-.036.023-.035.047h-.012v-.07l.036-.036.011-.058.036-.129h-.059l-.024-.058v-.07l.036-.059.035-.047.07-.035.035-.046.047.023h.047l.046.023zm.409-1.065.047.035.023.035.012.047.023.058-.011.012h-.012l-.024-.012-.046-.023-.024-.035-.035-.024-.082-.023-.023-.023-.023-.059.035-.023.046.011zM4.255 4.075l.047.023.047.035.023.047.024.035h-.07l-.06-.047-.093.012-.14.093H4.02l-.023-.011h-.024l-.023.011-.012.012-.023-.012-.012-.011-.011-.024v-.152l-.012-.023.129-.14.035-.024.011.035.024.047.047.023.035.012.046.047zm8.105-.492.034-.035.106-.023.047-.023.163-.036-.011.024-.024.046-.011.024-.012.035v.07l-.035.012-.012.035-.012.07-.035.047-.058-.035-.023-.047-.036-.023h-.046l-.024-.012V3.7l-.023-.047-.012-.023v-.023Zm-8.678-.35v.023l-.012.246v.034l-.058.047v.21l-.059.024-.023-.047-.011-.035v-.187l-.012-.023-.035-.035-.012-.024.023-.046h.082l.035-.024.012-.035.023-.164.012-.023.012.012Zm.28.163-.07-.011-.035-.036-.034-.046-.036-.047.012-.012.058-.012h.012l.024-.023.023-.035v-.023l-.012-.012-.011-.012.011-.011.024-.024.023-.012.059.012h.035l.023.012.047.047v.035l-.012.035-.012.07.012.035-.012.012-.058.011-.023.012-.024.012zm9.216-.327.105.14.035.047-.011.035h-.023l-.024-.012-.012-.023-.011.012-.024.058-.046.023h-.012l-.024.047-.011.024v.046l-.047-.023h-.047l-.047.035-.035.035v-.117l-.035-.117h-.082l-.163.094-.024-.035-.012-.024-.023-.011h-.047l-.023.035-.024.011-.011-.011-.035-.012h-.012l-.187.012-.059-.012-.023-.023-.023-.035-.024-.012h-.046l-.024-.012-.011-.023.011-.094.024-.047.163-.093.047-.012.117-.012.059.012.023.012.058.047.024-.024.023-.07h.117l.07-.023.024-.035h.023l.047-.047.011-.012.047.012.012.011.129.164.011.012.059.023zm-1.088-.772.012-.035-.012-.07-.023-.059-.035-.035h-.082l-.023-.012v-.093l-.024-.047-.046-.035-.059-.012h-.047l.012-.023.047-.117.012-.047-.012-.058-.035-.094-.012-.047-.012-.082h-.058l-.094.07-.046-.011-.129-.117.047-.035.058-.07.035-.036.106-.034.035-.036-.024-.058.012-.012.058-.047L11.716 1l-.011-.024-.012-.023.012-.035.023.011.035.024.023.012.036-.024.117-.128.49.631.012.047.047.082.117.046.234.036-.023.081v.258l-.024.07-.105.093-.047.059.059.023.058-.011.047-.047.035-.059.023.059.035.07.036.14-.012.059-.024-.012-.081-.07-.012.07.047.035.046.035.012.047-.047.047-.046-.023-.059-.047-.058-.024-.047-.023h-.035l-.035.023-.012.024-.012.093-.011.024-.047.011-.059.036-.058.023-.129-.059-.07-.046-.023-.059.046-.07-.07-.082-.047-.058zM1.881 1.42l.024.035.023.011.035.012.012.024.011.035v.07l-.011.117-.012.035-.012.023-.023.012-.012.035v.035l-.011.035-.024.012-.058.035-.024.012-.023.035-.012.023-.023.035h-.024l-.058.012-.246.164-.058-.012-.035-.059-.023-.058-.024-.14.047.011.011-.058v-.152l-.023-.082-.035-.035-.047-.024-.035-.058v-.047l.012-.187.012-.035.035-.035.011-.082v-.14L1.25 1.01 1.226.975V.952L1.25.905 1.26.894 1.25.812V.765l.035-.012.046-.012.059-.035.058-.047.024-.046v-.07L1.448.46 1.437.39l.035-.036h.023l.047-.023h.035l.012.012.082.081.117.059.046.035.024.07.023.035.012.024.012.047-.024.152.012.081.035.141.012.07-.012.07-.047.14z"/></svg>