<svg xmlns="http://www.w3.org/2000/svg" viewBox="0 0 25 20"><path d="M.932 14.765V1.607l.046.047.035.047.059.105.058.035.234.012.059.012.046.023.012.023.023.012h.07l.036-.035h.035l.023.012.024.011.011.012.024.024.035.034.035.012.023.012.035.07.024.023h.035l.058-.023.07-.012.035.024.024.023.082.047.035.023.129.012.023.012.011.07.012.035.024.012.023.011.058-.011.036-.036.058-.105.07-.07.094-.059.105-.058.105-.023.059.011.117.059.07.011h.117l.046-.011.059-.024.024.012.034.012h.059l.14-.035.07.011.07.059.036.105h.035l.047-.035h.07l.035.011.035.036.035.046.024.012h.093l.012.012.023.07.012.07v.07l.011.035.024.012.012.012.035.058.046.059.07.058.036.024.058-.012.047-.012h.035l.023.059-.023.058-.047.094-.023.07v.059l.035.28.023.047.176.14.023.035v.106l.012.023.058.07.07.176v.093l.012.024.024.023.035.023.023.012.047.012h.047l.035.011.047.036.046-.024V4.11l-.023-.059-.012-.058v-.024h.152l.012-.012.023-.058h-.011v-.023l-.012-.047.012-.023.011-.024.012-.012v-.023l.023-.14.024-.059.058-.023h.023l.059-.035h.035l.023.011.024.012.023.035.07.035.024.024.012.035.011.07.012.023.035.047v.012l.07-.035.024-.024.011-.011h.035l.082.082.035.023.024-.023.023-.047.035.011.106.059.233.023.047.012.164.105.023.035.059.012.046.012.012.058.024.07.035-.011.046-.024.035.012.07.047.012.011v.035l-.023.059.012.035.011.047v.023l-.011.023-.012.024-.023.012-.012.011v.047l.012.023v.024l.011.023-.011.035-.024.059v.082l.024.082.023.187.035.128.047.129.058.105.035.036.047.034.059.024.234.059.046.023.035.047.024.058.011.059v.07l-.011.023-.024.024-.011.023.011.047.012.035.035.023.14.094.21.035.118.059.023.011.012.024.012.023.058.012.023.012.024.023.059.058.105.07.163.07.059.024.047.105.046.024.117.023.094.059.14.199.07.093L9.34 7l.035.011.023.012.012.024.012.011.047.059.034.023.047.047.024.024.023.011h.07l.024.012.082.07.058.117.117.327.035.059.047.047.105.035.292.35.036.024.116.012.047.023.047.047.023.023-.011.012h.058l.012.023v.035l.023.024h.07l.117-.012.047-.047.117-.105.047-.023.047.011.117.059.058-.012.023-.047-.023-.07-.047-.058-.035-.059-.035-.058.023-.059.059-.105.023-.187.012-.035.047-.035.035-.024.292-.058h.258l.082.023.105.047.117.012.105-.012.199-.105.105-.036h.117l.093.047.445.398.117.047.117.011.164-.058h.117l.046.035.024.035.011.023.012.035.024.024.023.011.094-.011.081.011.047.024.047.035.163.012.059.011.047.024.047.023.011-.058h.024l.035-.012h.058l.094.035.175.023.035-.011.129-.21.023-.012h.036l.023.011.023.012.035-.012.024-.023.023-.012.024.012.058.046.024.012h.21l.035.024.082.093.047.035.058.012.07-.012.047.012.047.07.035.012h.07l.024.012.023.023.047.047.082-.024.07.036.058.046.07.012.012-.023.012-.024.023-.023.047-.024h.035l.023.012.082.047-.023.105.012.117.023.07.117.117.035.023.234-.07-.024-.035h-.105l-.046-.012L17 8.66l-.035-.023-.023-.035-.012-.036-.012-.034-.011-.082v-.024l-.012-.023v-.059l.023-.046.012-.012.012-.024.07-.093.023-.024.024.012.023.024.035.035.047.011h.082l.129-.046h.058l.047.011.046.035.047.047.024-.047.023-.175.023-.047.036-.047.035-.047.035-.023h.128l.047-.035h.07l.047.035.035.047.012.058.047.024.304-.129h.011l.047-.047.023-.011h.024l.047.011.023.012.339.164.07.011.035.012.012.024.023.046.012.024.035.023.023.012.059.012.058.035.012.035-.012.058-.011.082.023.059.094.058.023.07-.023.13-.012.08.035.036v.035l.059.187.023.047v.035l.012.047-.012.011-.035.059v.035l.012.07.046.047.094.07.023.047.012.023.012.07.012.012.011.024v.175l.012.024.012.023.011.023.024.012.046.012.024.011.046.094.012.047-.012.07-.023.07-.023.059-.188.304v.011l.024.012.07.023.152.012.059.035.573.28.561.293.573.281.561.292.573.28.562.293.561.293.55.269-.047.07-.14.058-.316.024.023-.012.012-.012v-.023l-.012-.012.035-.058-.011-.024h-.035l-.024.059-.035-.024-.105-.023.105.164.024.058-.024.047-.093.07-.036.094-.081.14-.035.035-.13.035-.01.024-.024.023-.024.035-.046.024-.117.011-.047.035-.012.012-.023.059-.024.011-.034.012H22.8l-.117.047-.07.081-.012-.023-.012-.023-.011-.024v-.035l-.012-.012h-.21l-.06-.011-.034-.035-.117.047h-.386l-.105.023-.304.012-.059.011-.082.059-.023.011-.316-.046-.772.046-.468.106-.56.21-.41.223-.445.315-.502.456-.562.597-.257.246-.257.339-.234.198-.024.024-.011.012-.082.14-.035-.012-.012-.035.047-.035-.047-.023-.374.082-.117-.012-.07.012-.106.081h-.116l-.07-.011-.118.035-.07.035-.023.035-.035.035-.047-.047-.047-.07-.011-.023-.047-.012-.246.023-.046.012-.036.024-.117.14.094.093.012.024.023.058.012.035h.07v.07l.012.036v.046l.011.036.035.011-.011.07.011.035.047.012.047-.023.035-.035.058-.094.047-.035h.023l.047.012.024-.012.023-.035v-.059l.012-.035.023-.058.047-.035h.035l.035.07-.012.047-.011.046v.106l.011.023.012.024.012.023v.023l.012.035v.012l-.012.012v.023l-.012.023-.023.024-.035.047-.012.046-.012.036-.023.105v.07l.023.012h.024l.035-.024.012.012.023.128-.011.024h-.036l-.035.023-.035.036v.023l.012.035-.012.059-.023.034-.047.024-.035.012-.047-.024-.07-.035-.047-.035-.023-.035v-.058l.011-.024.036-.012.011-.046-.011-.035-.117-.059-.024-.035-.07-.105-.023-.187-.188-.246-.233-.164-.2.047-.022.047-.012.07v.093l-.024.012-.14.035-.047-.011-.011-.036-.059-.222-.105-.234-.082-.14-.14-.14-.036-.047.082.023.106.094.07.012-.059-.106-.058-.058-.082-.035h-.117l-.093.023-.153.106h-.105l-.07-.059-.117-.222-.035-.059-.035-.011-.14-.082-.14-.024-.048-.023v-.012l.047-.023.07-.035.036-.036-.036-.046.024-.047.012-.058-.012-.047-.024-.059.082-.047.024.012.023.012.024.012.011.011.059-.011.046-.036.024-.046.023-.024.047-.023-.012-.047-.035-.058-.058-.024-.012-.023.012-.035.011-.059-.011-.023-.035-.059-.07-.14-.036-.035-.046-.012-.047-.012-.117.024h-.105l-.012.023-.012.012-.023.012-.024-.035-.058-.012h-.059l-.046.023.023.047-.023.035-.024.024-.012.035-.023.082-.023.011-.035.012-.024.035.012.035.035.047.012.047v.07l.011.093-.233-.034-.07.011-.012.035-.012.035-.023.035-.082.024-.035.035-.024.093.012.024-.047.012-.187.023-.023.035-.059-.024-.093-.07-.41-.432-.046-.035-.059-.012-.035-.023-.012-.024.012-.023.024.011.023.012.094.024.046.035.094.105.047.012h.128l.106-.012.163-.082.07-.023.035-.024.012-.035-.012-.035-.011-.035.035-.023.058-.047v-.024l.024-.058.011-.035.012-.024.047-.058.023-.059.129-.152.023-.105-.011-.128-.035-.13-.07-.093-.024-.012-.082-.035-.023-.023-.024-.012-.058-.128-.024-.129-.035-.07-.046-.058-.07-.047-.07.011-.012.094-.164-.012-.047.012-.023.047-.012.046-.012.047-.035.024-.035.023-.046.012-.036.011-.035.024-.105.093-.011.024-.047.046-.293.094-.046.035-.024.047-.023.047v.023l.012.024v.023l-.036.012-.023.011-.023-.011-.024-.024-.011-.023-.082.035h-.152l-.059.035-.023.094.047.047h.14l.234.058.093-.012.059-.035.187-.128.128.07.059.07-.023.082v.082l-.024.011h-.035l-.011.012-.047.047-.024.046-.023.036v.081l-.117.024-.21-.012-.024.024-.023.011-.024.012h-.035l-.023-.012-.059-.023-.035-.012-.058.012-.047.023-.245.187-.129.129-.024.024h-.058l-.035.011-.024.024-.035.058-.011.012-.14.046-.012.012-.024.047-.011.011-.117.024-.047.035-.14.164-.012.012.012.035v.023l-.024.035-.035.035-.058.012-.036.011-.035.059-.058.14-.047.035-.023.012-.024.024-.035.058-.035.035-.257.094h-.047l-.058.023-.036.047-.023.07-.035.059v.023l-.012.012h-.046l-.094.058-.023.024-.07.093-.047.035-.047.012-.059-.024-.081-.082-.036-.023-.011-.012-.023-.046-.024-.012-.093-.047-.094-.058-.059-.024-.058-.011-.234.023-.058-.023-.047-.047-.047-.047-.012-.059-.163-.14-.094-.082-.058-.023-.293-.059-.128-.058-.07-.012-.047-.035-.012-.012-.105-.023-.129-.128-.058-.047-.223-.176-.163-.093-.094-.082-.035-.012-.023-.023h-.035l-.012-.012-.024-.07v-.035h-.046l-.024.011-.011.024-.012.035v.035l-.058-.024-.036-.023-.058-.07-.035-.012H4.44l-.082.024-.035.058-.117.047-.129-.024-.21-.105-.281-.222-.105-.058h-.117l-.035-.012-.059-.024-.269-.034-.105.023-.129.058-.105.07-.035.106.012.047.058.07.023.046v.035l-.011.012-.07-.012h-.024l-.011-.011-.024-.012-.011.012-.059.058-.012.024-.011.035-.012.035-.047-.024-.023-.034-.035-.082-.035-.035-.024-.024-.035-.012-.047-.011h-.082l-.011.023v.035l-.024.035-.023.012-.047-.012-.035-.035-.023-.011.012-.036.034-.058.024-.047v-.082l-.024-.046-.034-.059-.421-.386-.211-.152-.386-.187zm14.77 2.315.023-.011h.047l.023.011-.011.035-.012.012h-.176l-.023.012-.023.058-.024.024h-.047l-.058-.024-.059-.047-.034-.035-.024-.058.047-.012.117.035.117-.023h.058zm-3.368-.818h.023v.046l.023.035.024.047v.047l-.024.023v-.023l-.011-.012-.012-.011-.058-.059-.07-.047-.082-.023-.094.023-.023.024-.012.011h-.047l-.035-.035h-.058l-.082.024h-.047l.023-.035.094-.082.047-.07.035-.024.035-.023.164-.023h.023l.024-.012h.011l.035.012.012.011.024.023.011.012-.023.012-.012.012.024.046.011.024v.035l.023.011zm.28-.644.035.012.024.023.082.13-.024.01-.046.012h-.106l-.035.012-.105.129-.059.047-.07-.035-.023-.012-.082-.047-.012-.035v-.035l-.023-.07.07-.117-.011-.024-.012-.023v-.023l.023-.024h.024l.011.012.012.023.023.012.106.047h.035l.117-.035z"/></svg>