<svg xmlns="http://www.w3.org/2000/svg" viewBox="0 0 45 65"><path d="M41.455 5.237v.023h.023l.023.012.024.011.023.047v.14l-.023.036-.012-.024-.023-.023-.024-.012-.035-.011-.047-.047-.023-.035V5.12l.012-.024.058.035.012.094zm.666-.363.035.023.024.07.011.07-.011.06-.07-.06-.141-.163-.012-.058-.011-.14.011-.036.047.012.035.047.059.14zM37.116 1.95h.058l.082.012.082.023.07.024v.023l-.035.012-.035-.012-.035-.011-.035-.012-.047.011-.035.012-.023.012-.024-.035-.011-.012-.012-.047zm6.525 50.746h-.023l-.152.059-.421.21-.035.047-.082.035-.187.129-1.134.526-.527.21-.655.118-.467.187h-.059l-.023.011-.047.059-.012.012-.643.199-.468.058-.046.023-.024-.023-.07.035-.316-.012-.292.036-.082-.036-.082.036-.21.011-.796-.105-.257-.082-.07-.047h-.117l-.047-.023-.035.012-.093.023-.024.023-.047.047-.011.024-.07.023-.188-.023-.081.035-.129.07-.152.082-.164.128-.339.258-.363.28-.163.047-.35.117-.223.117-.41.222-.163.059h-.047l-.047.023-.257.292-.175.106-.234.081-.094.036-.491.07-.421.081-.117.036-.047.046-.105.106-.035.023-.047.012-.058.046-.094.094-.129.164-.058.105-.035.105-.012.14-.023.06-.024.058-.035.035-.093.222-.012.024.012.023-.012.023v.035l-.023.07-.024.082-.047.14-.011.06-.012.151-.023.059-.047.023-.058.012-.047.035-.047.035-.035.047v.012l.012.011v.012l-.012.011-.012.012-.105.07-.152.176-.035.082-.024.058-.011.035.011.035v.024l.012.023-.035.035-.047.035-.117.047-.035.035-.023.024-.035.07-.012.012h-.117l-.035.023-.105.175h-.035l-.047-.023-.047-.047-.011-.035-.035-.023-.2-.024-.105.035-.07.094-.128.175-.094.035-.012-.011-.023-.012h-.011l-.012.012-.035.035h-.024l-.082.012-.023-.024-.035-.199-.047-.105-.07-.082-.105-.058h-.059l-.047.011-.035.012-.105.011-.199.082-.093.012-.059.012-.023-.024-.059-.058-.023-.012-.035.012-.07.035h-.234l-.105.012-.082.046.023.047-.012.035-.023.047-.035.023-.047-.058h-.012l-.011-.012-.012-.011h-.012l-.058.046-.035-.011-.257-.082-.106-.012-.093.035-.082.07-.035.036-.012.035.012.105-.024.058-.046-.011-.047-.047-.012-.035-.023.023-.024.024-.023.035-.012.012-.245-.012-.047-.012v-.023l.07-.082.012-.047-.059-.117-.023-.117-.024-.047-.011-.023-.059-.035-.058-.105-.024-.012h-.035l-.035.023H25.2l-.058.036-.094.093-.035.024-.047.011-.093.047-.047.012-.047-.024-.082-.07-.035-.023h-.035l-.047-.012h-.058l-.035.023-.012.024-.023.011h-.059l-.035-.035-.035-.047-.047-.023-.011-.011-.07-.036-.047-.023h-.094l-.433-.012-.046.012-.094.035-.129.024-.046.011-.117.082h-.012l-.012-.012-.058-.046-.07-.024h-.024l-.047.012-.105.035-.058.012h-.07l-.024.011-.035.012-.047-.023-.082-.012h-.14l-.058.023-.07.036-.07.034-.06-.011-.058.023h-.48l-.023.024-.023.023v.07l-.047.024-.269.105-.07.012-.035-.036-.269-.07-.257-.023-.059.012-.093.046h-.059l-.035-.011-.082-.047-.047-.024h-.093l-.047.024-.035.023-.07.047-.035.023-.059.012-.128.012-.14.047-.024.023-.176.176-.07.046-.163.07-.07.059.034.023-.023.035-.023.024-.07.012-.024.035-.082.21-.023.024-.094.07-.023.058-.035.082-.012.094v.07l.035.07.07.023.07.024.059.035-.035.012-.035.011-.047.024-.093.011-.094-.093-.082-.012-.07.047-.024.082.024.093.047.059-.024.012-.07.058v.047h-.035l-.012-.012-.011-.058-.024-.07-.035-.024-.047.012-.046.011-.024.036-.011.011-.024.07.012.07-.012.036-.035.023-.046.011h-.024l-.012-.023-.011-.047-.012-.023-.023-.012-.024-.011-.035-.012-.047.012h-.035l-.023-.024-.035-.035-.024-.012-.48-.081h-.023l-.046.035h-.012l-.14-.024h-.012l.105.129.012.023-.023.024-.176.023-.058.012-.094.082-.035.011-.035.035v.07l.023.06.059.01-.082.106-.047.035-.105.035-.094.07-.047.024-.233.058-.117.036-.094.07-.035.046-.047.117-.035.047-.023.07v.059l.035.105-.012.07-.035.023-.105-.011-.21.023-.047.024-.117.07-.082.012h-.024v.035l.012.023h.024l.023.012.023.058.024.059v.046l-.047.012-.035-.012-.129-.093-.023.023-.012-.023-.035.023-.129.036-.023.011-.023.012h-.047l-.058-.012-.024-.011-.012.011-.047.012h-.046l-.012-.012-.012-.011h-.023l-.012.011-.011.023-.012.012-.152.012-.035.023v.047l.023.047.047.035.07.035.023-.012.012-.023-.012-.024-.011-.035V63.2l.023-.012.047.012.035.105.047.035.105-.023.023.011-.011.059-.035-.023-.036.023-.046.035-.047.012-.105-.012-.082-.023-.129-.117-.163-.07-.164-.012-.047.012-.07.035-.035.058-.024.082v.105l-.082-.046-.128-.106-.094-.023-.082-.012-.035-.011-.14-.094-.035-.023-.082-.047-.047-.024h-.023l-.023.047-.047-.012-.106-.046h-.07l-.011.011-.024.012-.035-.012-.023-.023-.024-.012-.058.024-.035.046-.047.106-.035-.012-.047-.058-.035-.012-.047-.012-.07-.023-.023-.012-.035.012-.035.011h-.036l-.023-.011-.023-.024-.047-.011h-.035l-.035.011-.059.059-.046.047-.059.011-.082-.011-.035-.024-.105-.07-.105-.023-.036-.024-.011.024-.012.011v.035h-.187l-.024.036-.023.034-.058-.023-.082-.07-.14-.024-.047-.035-.024-.011h-.105l-.012-.012-.058-.07-.105-.082-.059-.047.024-.023.222.046.047.012.035.012.011-.024-.011-.035-.024-.035-.035-.011-.093-.035-.035-.036-.036-.058-.035-.035-.023-.012-.012-.012-.011.012-.024.012.07.129-.07.046-.117-.023-.105-.047-.105-.058-.398-.13-.199-.023h-.023l-.058.012h-.024l-.012-.012v-.035l.012-.058-.023-.059-.059-.082-.035-.105-.047-.07-.082-.082-.362-.433-.35-.292-.106-.07-.094-.024-.023-.011-.023-.024-.012-.035-.012-.023-.023-.012-.035-.012-.398-.21-.117-.035-.07-.012-.21.012-.047.023-.07.13-.047.034-.035-.059-.234-.257-.024-.058v-.082l.012-.117-.012-.059-.011-.058-.082-.164v-.538l-.024-.117-.011-.081.011-.047.047-.14.024-.06-.047-.07L6.979 59l-.012-.117.047-.094.07-.07.012-.047v-.058l-.035-.175v-.059h.035l.105.047.07.082.047.093.082.07.093.059.106.035.105.012h.117l.105-.012.117-.047.105-.046.07-.059.223-.269.152-.269.07-.175.035-.152.023-.035.024-.035.023.011.035.012.047.012.07-.036.024-.081-.012-.2v-.046h-.023l-.024.035-.012.117-.023.14h-.023l.011-.514.012-.304-.035-.269-.094-.398-.035-.257-.023-.105-.012-.094.035-.128.047-.094.117-.176.07-.07-.023.129-.14.164v.152l.07.234.058.117.07.035.024-.047-.024-.07-.046-.117-.036-.047-.011-.023v-.082l-.012-.035-.035-.035-.012-.012.024-.023h.023l.047.035.023.011h.117l.035-.023.024-.082-.012-.07-.047-.035-.047-.012-.023-.023-.012-.059v-.058l.035-.059.012-.023.035-.117v-.117l-.035-.094-.07-.058.07-.07v-.036l-.012-.058-.035-.035-.082-.047-.023-.047h.117l.035-.035.023-.058.012-.07.024-.106v-.07l-.012-.035-.035-.047-.012-.023.023-.047v-.035l-.011-.035-.024-.059v-.058l.035-.386-.058-.48-.047-.245-.058-.14-.199-.305-.14-.35-.246-.398L8.09 51l-.187-.444-.2-.34-.14-.151-.046-.187v-.036l-.012-.034-.152-.34-.012-.023-.011-.059-.082-.245-.012-.059v-.117l-.012-.058-.046-.234-.035-.082v-.023l-.024-.024-.011-.023v-.024l.035-.023v-.117l-.012-.035-.023-.012-.047-.035-.024-.012-.011-.058v-.07l.023-.07.012-.07-.012-.024-.023-.07-.012-.07-.023-.024-.024-.023-.023-.024-.012-.105.07-.398-.011-.058-.035-.105-.012-.047-.012-.257.012-.258.035-.233.058-.176v-.07l-.011-.059-.059-.152-.035-.128-.012-.07-.011-.06-.012-.046-.035-.105-.047-.175-.14-.375-.024-.047-.467-.538-.012-.035-.093-.128-.024-.059-.035-.128-.035-.036.047-.105v-.14l-.012-.14-.164-.398-.058-.094-.222-.257-.14-.234-.013-.047-.011-.046-.129-.187-.035-.024-.093-.047-.036-.035-.21-.257-.035-.082-.012-.035v-.012l-.011-.105v-.023l-.106-.34-.011-.128v-.129l.011-.058.047-.117.012-.059v-.023l.047-.059v-.07l-.188-.701-.152-.398-.233-.421-.421-.737-.281-.421-.176-.293-.152-.151-.163-.2-.293-.292-.035-.035-.082-.082-.035-.046v-.07l-.011-.059.011-.047-.035-.058-.035-.094-.07-.14-.082-.07-.094-.106-.046-.081.011-.036.059.047.058.059.059.023.07.012.023.07.024.07.011-.105.012-.094.024-.105-.012-.105-.012-.105.024-.094.035-.082.035.363.023.327v.117l.012.105.035.059.035.082.023.058.036.012-.024-.094-.047-.128-.011-.094.035-.14.035-.047v-.327l-.059-.164.024-.082.058.14.024.34.046-.07.024.011h.07v.129l.023.058.012.082.023.035.012.058.023.047.024.082.023.14-.035.07.012.106-.035.117.011.011.059-.023v-.175l.011-.047.036-.117-.047-.129.011-.046v-.059l.047-.023.035.058.012.047.012.059.023.081-.023.094.023.082.012.105-.024.07.024.059v.21h.035l.035-.035.012-.035v-.058l.011-.035.059-.059-.012-.047-.011-.07.023-.023.047.117v.199l-.024.07.012.046-.023.036.035.011.046-.011.012.046.012.059v.047l.047.011v-.07l.023-.047.035-.011.07-.035.059-.012.035-.024.023.036h.082v-.106l.058-.023.047-.035.047-.059.047-.093v-.082l-.012-.117-.035-.07.035-.059v-.105l-.047-.07-.07-.07-.07-.082-.082-.07-.082-.012-.175-.047-.012-.059v-.058l-.023-.047-.058-.082-.094-.117-.094-.023-.011-.094-.012-.058.023-.082-.035-.024-.023-.081.011-.094-.105-.059.012-.081-.012-.059-.012-.058-.034-.024-.024-.047-.047-.035-.012-.035v-.035l-.023-.047-.035-.035-.07-.105-.012-.07.012-.07.012-.07.023-.059.047-.094.035-.081.07-.082.035-.094.035-.011v.093l.024.105-.012.07.035.047h.058l.012.035h.059l.023.106.035.105.058.094.082.046.036.082.07.035.07.012-.012.094-.011.046.011.07.012.012.047.024.035.011v.059l-.012.046-.047.047.012.059v.082l-.023.07-.035.07.011.047-.023.082v.128l-.024.07.059.106v.046h.094l.011.036.07-.012.14-.246.047-.128.036-.106-.036-.117-.011-.035-.024-.046v-.082h.012l.023.012.047.011.07.07-.011.059-.012.105.023.164-.011.082.058.058h.047l-.035.152.023.105.035.094v.07l.024.082.011.058.14.176.118.128.046.036h.047l.047-.047.058-.047.036-.058.07-.035.058-.024.024-.093.046-.082-.035-.117-.035-.082-.023-.082-.012-.07.012-.082.011-.058.036-.117.023-.012v-.035l.012-.047v-.023l-.035-.07-.059-.106-.023-.082.012-.023.034.023.036.047.011.012h.035l.035-.012.024-.012h.035l-.023-.046-.036-.036-.023-.034-.011-.059.023-.058.035-.07.023-.07-.011-.06-.047-.034-.129-.07-.093-.047-.024-.047-.011-.047L4.815 35l.012-.046-.012-.059-.035-.047-.046-.011v-.012l-.012-.058-.024-.012-.093-.059-.023-.035-.07-.187-.164-.234-.059-.117-.175-.42-.012-.07-.012-.048-.093-.152-.023-.082-.012-.023-.035-.035-.117-.07-.082-.035-.058-.059-.036-.07-.023-.094-.035-.058-.012-.059-.012-.035-.011-.023.011-.023.035-.047.012-.023v-.059l-.012-.058-.058-.047-.07-.012v-.058l-.012-.07v-.047l.024-.047.011-.059v-.07l-.023-.07-.024-.059-.152-.234-.269-.327-.058-.094-.047-.117-.023-.128-.012-.468v-.058l.023-.047.07-.07.024-.047v-.07l-.035-.13-.012-.092V30.1l.024-.047.035-.035.023-.035.024-.047.011-.07v-.07l-.011-.047.011-.047.082-.105.035-.058.059-.258.035-.046.046-.012.106-.304.011-.035.024-.012.023-.012.024-.011v-.024l.023-.023.059-.024.058-.023.012-.023.011-.036.024-.023.093-.07.035-.035.012-.082.012-.012.023-.035v-.023l.012-.2.023-.116v-.059l-.035-.245-.047-.175v-.047l.012-.07v-.036l.012-.023.023-.023.023-.012.036-.023.035-.059.023-.07-.011-.34-.012-.093-.047-.07-.024-.059-.046-.187-.117-.128-.035-.024-.024-.011-.046-.012h-.036l.036-.105v-.059l-.036-.058v-.117l-.011-.035-.012-.024-.012-.023.012-.047.023-.023.059-.024.023-.023.07-.129.036-.035.011-.023.012-.129.023-.058.024-.059.093-.105.024-.047.21-.62.012-.058.011-.059.012-.047.07-.105.059-.176.164-.257.07-.058.082-.059.046-.023h.059l.047-.012.047-.035h.035l.035.024.011.058-.023.035-.035.035-.023.035v.059l-.047.117-.082.514-.035.106-.012.093.047.094.023.035.047.105.012.047-.035.105-.012.047.047.023.011-.035.024-.046.023-.036.047.024.012.035v.058l-.024.047-.023.012-.082.093-.012.024v.035l.024.07-.035.117.023.07.07.047.082.012.047-.047.023-.059.035-.046.082-.024.024-.012.035-.023.035-.011.035.011.012.035.011.047.023.023.047.024.059-.024.023-.023.012-.035v-.094l.023-.047.012-.034v-.07l.012-.06.082-.163.023-.082.023-.07.012-.024.058-.093v-.024l-.011-.046.011-.024.024-.011h.035l.023-.012.024-.105.035-.106v-.081l-.035-.035-.012-.012-.012-.024V24.3l.012-.024.047.035.047.059.035.035.128-.246.024-.082.012-.011h.023v-.012l.011-.011.012-.047.012-.117.023-.035.059-.012.023-.012.035-.046.023-.024.211-.082.386-.245.117-.035.093.035.117-.047.036-.023.023-.024.035-.023h.023l.024.035.304-.187.608-.234.058-.035.024-.059.023-.046.035-.047.07-.07.176-.223.058-.058.094-.07.374-.176.035-.023.035-.106.07-.093.047-.117.07-.082.082-.07.059-.035.046-.012.13-.058.081-.035.035-.012.035-.035.105-.024.07-.046.06-.07.034-.106.012-.128.012-.035.058-.012.035.012.035.023.059.023h.058l.047-.023.07-.058.035-.012h.117l.117-.024.035-.023.082-.058.023-.012h.024l.012-.024.023-.023.023-.058.024-.012h.046l.106-.035.292-.21.105-.118.094-.152.047-.035-.012-.035.047-.023h.046l.024.011.023.012v.012h-.023l-.035.023-.023.058-.012.117-.012.012-.035.047-.012.035-.012.035.012.012.129.117.047.023h.07l.047-.011.058-.024.047-.035.023-.035.024-.023.28-.129h.024l.046.035.012.011h.035l.024-.023.07-.058.023-.036h.024l.011.024v.059l-.011.034v.036l.023.023.012.012.011.035.047.023.199.082.094.024.116.023.211-.023.199-.047.082-.035.093-.07.059-.024.058.012.035.035.035-.012.024-.023.011-.012.012.012.023.012-.011.011.047-.011.105-.047.012.023.035-.023.093-.035.07-.035.047-.012.024-.012.023-.023.035-.07.012-.024.035-.023.012-.012h.07l.023-.023.035-.047.012-.024-.012-.046v-.035l.023-.012.503-.374.047-.012h.023l.024-.011.023-.012h.024l.011.023v.023l.012.024.035-.024.059.024.046-.024.036-.023.046-.023h.024l.058-.024.024-.011.035.011.011.024v.023l.035.023.035-.011.117-.035.363-.07h.035l.012-.012h.011l.012-.012.07-.011h.059l.023.011.012.012.023.012h.082l.058-.012.094-.07.058-.012.06-.012.057-.011.07-.047.048-.07.082-.152.198-.222.035-.094.012-.059.023-.023.035-.023.047-.024.082-.035h.023l.012-.023.012-.035.012-.024.07-.046.058.023.105.094v-.07l.012-.047.023-.012.047-.012.059.012.21.07.105.012.059.011h.047l.105.047h.082l.023-.023.024-.012.023.023.012.012.011.035.012.024.094.058.058.024.059.023.058-.012.093-.058.036-.012.011-.012.059-.07.011-.011.059.023.023-.012.047-.023v-.024l-.012-.035v-.023l.047-.035h.059l.117.012.28-.047.421-.07.445-.047.339-.105.737-.293.397-.175.398-.187.456-.304.093-.106.036-.011.035-.024.315-.327.27-.363.268-.42.047-.153.059-.07.011-.035v-.058l.012-.036.023-.023.035-.035.012-.035.047-.129.047-.105.023-.035.023-.07v-.024l-.011-.035-.024-.023-.023-.024-.012-.023-.023-.07.023-.012.059.023.035-.011.023-.012.024-.012.105-.011.023-.012.117-.105.024-.047v-.058l-.012-.047-.035-.024-.082-.035.082-.058.035-.047.058-.164.036-.058.035-.035.035.011.035.024.035.023h.058l.059-.023.292-.223.059-.058.023-.082.023-.035.164-.07.047-.035.047-.047.058-.105.012.012.012.011.011.012.035-.082.024-.035.082-.023.198-.106.059-.081.035-.082.023-.07-.011-.106-.012-.07-.047-.047-.082-.035-.07-.012-.093-.011-.082.023-.059.082h-.011l-.012-.023-.011-.012-.012-.012-.024-.011.07-.094.036-.093v-.106l-.047-.187.011-.175.012-.024.012-.023v-.035l-.012-.024-.035-.046-.023-.059-.012-.023-.012-.07-.035-.082v-.035l-.023-.035-.012-.024v-.292l.024-.316.046-.129.012-.093.012-.047.035-.035.047-.023.011-.036.14-.163.036-.035-.024-.024-.023-.012-.012-.011.023-.058.024-.024.35-.327.106-.059-.012.047.012.035.035.012.035-.036.012-.058-.023-.047v-.035l.035-.012.046.012.024.024.023.035.024.035.035.023.128.024-.035-.036-.058-.128-.07-.106-.012-.034v-.024l.012-.023.011-.012.012-.012v.012h.023l.012-.024v-.046l.024-.035.023-.036.023-.023.059-.011.012.034.011.024.035.012h.059l.046-.036h.106l.035-.023.023-.023.035-.024.047-.011.035.011.129.047-.152-.129-.047-.082v-.105l.023-.046.012-.024V9.34l.012-.023.023-.035.023-.047.036-.011.081.011h.024l.035-.023.012-.035.023-.035.023-.036.036-.011.023-.058.024-.106.034-.093h.059l.175-.117.036.023v.035l-.059.07.117.047.047.035-.012.047-.035.023h-.035l-.035-.011-.035-.012-.035.011-.012.024-.012.058.024.07-.07.14.023.036.012.059.011.023.024.012.058-.035h.024l.011.023.012.07v.07l.035.047.07-.023.036.058.023.012.023.012.035-.012.012-.012v-.023l.024-.023h.011v.058l-.011.035-.036.012h-.023l-.012.012-.011.034v.07l.023.047.047.024.046.012.024.023.012.047.011.047v.034l-.035.106v.058l.035.024.07.011.036.036.046.105.117.093.012.047v.105l.012.047.023.035.094.105.046.07.024.06.023.058.047.058.023.07-.023.07.047.106.035.035.094.035.034.059.024.058.023.012.024.046.035.024.035.035.023.117.07.082.036.046.023.047.012.117v.035l.011.012.024-.012.011-.023.012-.035v-.176l-.023-.035-.047-.093v-.153l.011-.116.024-.024.035-.07.012-.035v-.093l.011-.024.024-.023v-.035l.011-.059v-.035l.024-.023.023-.012h.035v-.047l-.011-.035-.035-.047-.117-.164-.012-.14.012-.047.035-.07v-.047l.035.035h.023l.024-.011h.07l.011.011.036.036v.011l.023.129.023-.012.012-.011.012-.012.046.012.047.034.047.047.023.047.012.023v.024l.024.023.011.024.035.023.059.023.023.012.035.047.035.059.035.046.047.024h.059l.035-.012v-.047h-.024l-.035-.011-.023-.012-.082-.07-.047-.082-.058-.223-.035-.093-.012-.047.023-.023.036.012.093.058.024.024.023-.059-.035-.035-.035-.035-.024-.047.024-.047.07-.058.012-.035.023-.035.047-.035.047-.024.046-.023.024-.047.012-.058-.012-.059-.035-.023-.024.105-.058.058-.176.059-.105.023-.07-.035-.094-.175-.011-.047-.024-.105-.023-.035-.047-.035-.082-.047-.047-.024-.082-.081-.034-.024-.234-.035V9.47l.011-.023.047-.023.059-.012.034-.035-.034-.058.105-.048.046-.034v-.047l-.034-.024h-.106l-.058-.011.023.082v.011h-.082l-.035-.011-.011-.036-.012-.023-.082-.047-.035-.035-.012-.012-.023-.011-.012-.012-.011-.023.117.035h.035l.035-.012-.024-.035-.046-.059.058.012.094.082.046.012.059.023.07.023.07.024.059-.012-.024-.023-.035-.012-.082-.023.047-.024.082-.012.047-.011-.304-.164-.082-.023v-.024l.082.012h.023l.012-.047.246.082.163.012-.058-.058-.035-.024-.035-.012-.024-.011-.023-.024-.024-.035v-.012l.024-.011h.023l.035.023.047.012.047.012.023.011.012-.023.012-.047-.012-.035-.012-.035h-.035l-.105-.012-.012-.012-.011-.023-.024-.023-.023-.024-.023-.011h-.024l-.023.023v.012h.023l.012.011v.012l-.012.012h-.047l-.012-.024-.011-.011-.012-.012-.058-.035-.024-.035-.023-.024.07-.011.023-.059-.011-.058-.047-.024.023-.07.024-.023.023-.024.012.012.035.012h.012l-.024-.059.257-.023.07.023.012-.046.024.011.023.035.024.024h.058l.012.011.023.035h.012l.023.012.024.012v.023l-.012.024h-.023l-.059-.012h-.012v.035l.047.023.07.012.047.012-.047.035-.07.011-.07.012-.07.012.187.14.07.024.035.011h.024l.023.012.023.035v.047l-.011.023-.024.012-.023-.024-.035.012.047.14.023.035.023-.035h.012l.012.012.012.012.011.011.012-.058V8.71l.012-.047-.012-.035h.035l.059.012.046.023.012.023.035.036.047.023.023-.012-.093-.164-.012-.07.094-.023v-.012l-.059-.035-.058-.035-.047-.058-.035-.047.058.011.106.06.058.01h.059l.023.012.012.012.011.023h.024l.058-.011.106.023.046.012.059.047.047.023.011.011.07.2.036.034.035.024.198.012.082.023h.024l.07-.117.047-.035h.035l.07.058.058.035.07.012.305.024h.082l.07-.036.023.024.058-.024.117-.011h.117l.047.047.035.046.094.024.105-.012.07-.058h-.058l-.106.011-.046-.011-.035-.036-.047-.011-.106-.024-.14-.082-.269-.046h-.058l-.2.023-.034.023-.024.012-.046-.046-.012.011-.012.012h-.046l-.047-.012-.023-.023-.024-.082-.012-.012-.011-.011-.012-.012.012-.035.023-.059v-.035l-.012-.023-.023-.012-.011-.023.023-.047.011-.024v-.035l.012-.023.059-.023.023-.012.012-.035v-.2l.011-.034.024-.012h.023l.035.024.012.035v.117l.012.011.058.058.035.048.024.046.023-.058.047-.07.058-.059.07.024-.011-.059-.012-.187-.011-.105.023-.024h.058l-.011-.058-.012-.059.012-.105.023-.047.059-.035.07-.011.023.046h.024l.023-.058.012-.058.023-.047.059-.035-.082-.036-.059-.011-.117.011-.023.012-.035.024-.059.116-.07.07-.117.258-.082.07v-.035l.012-.023.012-.024v-.047l-.012-.023-.012-.012-.023-.023-.012-.082-.058-.152-.024-.035v.058l-.011.012h-.024l-.011.012-.012.011-.035.035-.012-.187-.012-.046-.023-.047-.011-.07v-.047l.023-.035-.035-.082v-.047l.012-.011.011.011.012.024h.011v-.07l.012-.024.012-.023.035.093.023-.058v-.07l-.023-.047-.059.012.024-.13-.012-.057-.058-.036.035-.011.046.011.024.024h.023l.012-.012.047-.012.011-.011v-.082l.047-.058.082-.012.094.035.07.058.035.012.047.012h.058l.024-.012V6.16l.011-.012.012-.023.012-.012.011.012.012.023-.023.047.011.035.024.035.035.024.035-.012.023-.047-.046-.035v-.07l.023-.07.047-.047.07-.035.011-.012-.011-.023-.047-.012-.012-.035-.058.047-.035.012-.012-.035.012-.047.023-.012h.035l.024-.012v-.046l-.035-.012h-.059l-.012-.023v-.024l.012-.07.047.023.023.012h.024-.012l.012-.012.011-.011.012-.012.012.012v.035l.012.023h.011l.094.024.012.023-.024.035-.035.07.012.012.105-.094.035-.023h.012l.035.047.023.012.024.011v.024l-.012.046-.024.024h.059l.07-.012.035-.012.059.012.035.035.07.07.012.024v.011l.023.012.047.012.012.011.023.012.012.012v.035l-.047.093.012.024h.023l.023-.012.024-.023.023-.012.024.012v.07l.058.012.012-.024v-.058l.023-.047.07.012.176.14.082.035-.035-.047-.106-.082-.023-.023-.14-.117.011-.035.035-.164.024-.023.035-.023.046-.012.036-.012v-.012h-.036l-.035-.011-.035-.035-.011-.036-.024.06h-.046l-.047-.036-.035-.035-.035.011-.106.07-.093.036-.059.035-.023.011-.035-.023-.012-.023-.012-.07h-.023l-.012-.024V5.75l.012-.012.023-.035.024-.012.035-.011.012-.024-.012-.023.012-.024.035-.011.035-.012.035-.023.023-.012h.012l.035.035h.047l.047-.047.081-.105-.023-.012-.058-.012-.036-.023-.023.082v.012h-.024l-.023-.012-.011-.012v-.023l-.024.012-.023.046v.012h-.024l-.058.035-.117.105-.047.024V5.62l.012-.012.011-.011-.023-.024-.012.035h-.023v-.093l.011-.024.024-.035v-.023h-.024l-.035.011-.035-.011.024-.059.035-.023V5.34l.011-.023.012-.012.012-.023.035-.012h.035l.035-.012.023.012.035.023.059.012.012.012.035.035.07-.094.035-.035.023.035.012-.035.012-.07-.012-.047-.047-.035.012-.012v-.058l-.012-.047-.023-.046.035.011.023.012.047.035.024-.024.023-.023.035-.012.023.024.012.047-.058.046v.047l.023-.012.012.094.035-.023.023-.059.035-.012.012.024.012.012h.011v.046l-.011.012-.012.023.047.106v.023l.023.012.035.082.024.035.011-.024V5.4l-.011-.024.011-.023.012-.024v-.023l-.035-.14-.035-.059v-.035l.047-.047v.059l.023.023.035.023h.035l.035.012.024.035.011.012.047-.024.012.036.012.023.023.012.047.046v.012l-.012.024-.012.023.047.035.059.023h.046v-.023l.07-.011.164.034.035-.034-.011-.047-.012-.012-.082.012-.035-.012-.012-.023-.011-.035v-.024h.023l.024-.012v-.035l-.024-.011h-.023v-.012l-.012-.023.012-.012h.023l.024-.012.046-.035.059-.023v-.035L34.288 5l-.082.024-.047-.012-.035-.035h-.012l-.035.011-.011-.011-.012-.024-.012-.011-.011.011h-.012l-.012.012h-.023l-.024.012h-.023l-.023-.036v-.011l.011-.023.024-.036h-.024l-.035.012-.023.024-.035-.012-.012-.035h-.035l-.012.011h-.035l-.023-.011-.024-.012-.011-.023.035-.012.023-.012.012-.023.011-.024v-.011h.036l.046-.024h.024v.012l.011.023.012.012.035.012h.035l.012-.024v-.021l-.024-.024.059-.023-.023-.047-.082-.035-.094.012-.011-.036-.07-.011-.024-.035-.012-.14-.011-.024-.036.023h-.023l-.012-.011v-.035h-.035l-.011-.012v-.059l.011-.023h.035l.035.011.024-.011v-.012l-.012-.023v-.024l.024-.011.011-.012v.012h.059l-.024-.047.012-.047.035-.011.094.035.011-.012.012-.047.023-.011h.035l.035-.036-.046-.011h-.106l-.023-.047.035-.058.058-.047.059-.024.047.024h.011l.024-.047.023-.023.012-.012v-.082l.012-.035.023-.011.023.023-.011.175v.036l-.024.058.035-.047.047-.035.035-.035v-.058l.035.034.094.211v.023l.011-.011.012-.047-.023-.058.011-.024.047.012-.011-.035.011-.024.012-.023.023-.024-.023-.011v-.07l.07.058-.012-.07v-.047l.012-.023.023-.024h.024l.023.012.012.012.023.011h.059v.047l-.024.035-.035.024-.011.023.035.023h.046l.047-.011.035-.012-.011-.023v-.024l.011-.046h.024l.011-.012v-.012l-.011-.023-.012-.012.023-.152.024-.058.012-.024-.012-.047-.035-.046-.023-.047.011-.035-.011-.024-.012-.058v-.047l.023-.047v-.023l-.023-.024v-.023l.023-.011.035.011-.011-.047.035-.011.047.023.023.07h.023v-.023h.012l.023.035.07.047.036.035v-.023l.011-.024.024-.012.023-.023.012.023-.024.024-.035.07.024.023v.024l-.024.023-.035.023-.023-.011-.024-.023-.023-.012-.035.023.011.023v.024l-.011.012v.011l.035.27.023.046.012.082-.129.245.012.106.035-.036.117-.315.023-.035.012-.059v-.117l.023-.07.035-.011.024.034-.024.047.024.024v.023l-.024.07.094-.023.035-.012.012-.035.011-.023h.035l.012.023-.012.023v.012l.024.012h.023l.012-.023.012-.012h.023l.023.023v.024l-.023.023h-.023l-.035.024.035.093-.024.035v.024l.035.011v.024l-.011.023-.012.035.012.024.023.035.023.011h.012l.094.07.046.035.024-.011.023-.106-.011-.011-.012-.023-.023-.024-.012-.012V3.81h.012l.011-.012.012-.058.012-.024.011-.023h.082l.024.012v.011l.035.036.011.011.035-.011v-.06l.012-.022h.024l.034.023h.024l.023-.023v-.036l-.011-.034-.012-.024v-.035l-.047-.035v-.023l-.011-.047-.012-.012-.012-.012-.023-.011-.012-.012-.023-.012V3.32l.011.011.035-.023.036-.012v-.011h.011l.047-.035.07-.012.012-.023-.012-.024v-.035l.012-.023.023-.024v-.035l-.023-.047-.012-.023v-.035l.012-.035.011-.024.082-.011.024-.012.023-.012.058-.058h.012V2.77l-.012-.047v-.046l.024-.024-.047-.105-.07-.035-.257-.012-.035-.011-.024-.047v-.024l-.023-.035-.012-.035.012-.011.011-.036v-.035l.036.024.046.07.024.023.035-.011v-.106l.035-.011.07.105h.058l-.011-.023v-.082l-.012-.047-.011-.012h-.024l-.105-.058-.012-.012-.035-.035.012-.011.023.011.082.023.012-.011.011-.047.012-.035.035-.023h.023l.024.023-.012.035-.023.024v.011l.07.012.023.012h.024l.035-.024v.024l-.012.023-.035.035.012.012.023.011h.012v.024l-.035.011-.035.024-.024.047-.011.046.046-.023.035-.024.082-.07.024-.011.023-.012.082-.035-.035.058-.082.047-.023.047.058.012.059.035v.035l-.047.011-.07.012-.012.024.012.035v.035l.081-.024.036.012v.047l-.07.07-.012.023.046-.011-.023.082.059.046.07.024.011.035-.023.011h-.012l-.011.012v.023h.011l.035.012.012.012.024-.024.034-.023h.024l.023.058h.012l.012-.035.011-.035.024-.023.093-.024V2.77l-.035-.035-.035-.047-.012-.011h-.046l-.012-.012.012-.024.035-.034v-.047l.011-.035.024-.012.047-.023-.012-.012-.012-.012-.011-.011.035-.036h.046l.047-.011.035-.094.082-.07.023-.023.047.058h.047l.047-.035.035-.047.047-.07.023-.023.035.011.082.024-.035.011-.047.024-.035.023-.012.023-.011.036-.012.011-.012.012-.023.011-.012.07v.024l-.082.07L37 2.5l.023.023.047-.011.094-.036.023.012-.082.117.024.012.023.058.023.012h.036l.035-.011.023-.012.035.012v.023l-.012.094.012.023.012.047.023.011.024.012.023.023v-.07l.012-.035.011-.035.024-.023.035-.012.035-.012.012-.035v-.035l-.012-.023v-.024l.023-.035v-.023l-.011-.012-.012-.035.012-.023.023.011.035.024.012.011.012.024.011.058.012.012h.035l.035-.094.035-.035-.012-.035.012-.035.035-.047v-.046h-.012l-.011.023-.012.012-.035.023-.023-.035-.024-.035v-.035l.012-.023h.023l.047.011h.035l.012-.023.035-.024.023.012.035-.012h.012l.07.024h.035l.036-.024-.059-.023-.024-.012-.011-.023.023-.024h.035l.07.024-.011-.024-.024-.023-.023-.012h-.035l-.035-.011-.024-.035-.011-.035v-.036l-.012-.023-.047-.059-.012-.023-.034-.105-.024-.035.047-.012h.058l.047-.023.012-.035h.011l.024.023.011.035-.011.059.023.011.035.012v-.035l.024-.012.023-.011h.035V1.74l-.047-.024-.035-.046v-.035l.047-.036.047.012.047.024.046.023.047-.012-.058-.035-.012-.011.023-.012.036-.012.058-.023.07.082.035.035.047.012.024.011.011.047-.011.082.046-.024h.035l.012.012-.012.058.047-.035.012.036-.024.07-.023.058.082-.011.023.035v.082l.035.07.059.035.035-.035.023-.059.047-.047-.023-.011-.012-.024V2.01l.023-.035.036.023.023.035-.012.082.012.035.023.012.024-.023.011-.012.036-.094.034-.023.036.011.093.106.035.035.082.035v-.047l-.023-.082.023-.035h.035l.024.035.011.035.024.024h.035l.023.012.012.023.012.035h.011l.012-.012.023-.046.035.035.024.035.023.047.012.046v.035l-.023.094.011.023.059.036.023.023.024-.059.034.024.047.046.035.024.035.012.07.07.047.023h.047l.012.012.023.023.105.094.024.047.023.046.047.059.152.129.012.023.07.199.023.012.047.011.023.012v.152l.024.012.023.011v-.011l.012-.036.012-.023.023-.012.023.024.024.047-.059.07v.046l.047-.035.035.012.047.058.093.06.035.034-.023.024-.012.011v.059l.012.023.035.012h.024l.058-.035.023-.012h.012l.035.023.059.059h.011l.024.023.011.047.024.035.035.024h.035l.035.011.024.012.117.105.034.024.059.011h.058l.024.024.012.023v.047l-.012.023-.035-.023-.047-.012-.035.012-.012.047.012.046.023.094v.07h-.081l-.036.012-.023.012-.058.035.058.023-.012.094-.058.175-.012.035-.035.058-.012.047v.047l.012.047-.012.035-.046.082-.012.047v.046l.012.047.023.058.012.024-.024.28-.011.036-.024.011h-.047l.07.2v.105l-.034.105-.094.094-.023.023.023.023.058-.023.059-.047.047-.035.046-.094.024-.117.023-.116-.011-.117-.036-.176.024-.011v-.036l-.012-.035.012-.023.035-.023.023.023.024.023.082.035.128.129.024.047.011.011.047.082.07.199v.047h.024l.012-.234-.012-.07-.035-.047-.094-.094-.023-.035-.035-.046-.012-.059.023-.058.012-.012-.023-.117-.024-.012-.011-.011-.012-.024-.012-.117.047-.093.14-.14h.012l.012-.012h.011v-.059l.035-.046.047-.059.024.012.023.07.035.234.012.047.047.023-.024-.093V4.99l.024-.046.081.117.047.035.07.023.024-.012.011-.023.012-.023v-.07l-.012-.012-.011-.012-.012-.023-.07-.117-.012-.059-.023-.058v-.07l.011-.012h.024l.011-.012.024-.011.012-.012v-.012l-.012-.023-.012-.012-.046-.023-.024-.012-.035-.047.012-.023.117-.012.105-.035.058-.023.035-.024.047-.023.059.012.093.058.223.024.093.023.094.082.047-.012.058.012.07.023.047.012h.222l.058.023.082.047h.059l.012.012zM2.43 35.926l.023.046v.07l-.023.059-.024.023-.035-.012-.047-.023-.011-.094-.047-.117-.047-.058-.023-.023-.117-.176-.094-.07-.093-.28-.117-.141-.035-.07.023-.024v-.023l-.023-.164-.082-.198v-.305l.023-.058.035-.035.036-.035.034.035h.036l.035-.012.023.024v.163l.035.106.059.117.023.14v.105l.047.094.058.14.07.152.047.105-.058.152v.082l.082.012-.012-.024-.012-.023-.012-.011.036-.012.023.035.023.058.035.047.012.023.035.047.024.024.011.035.012.058.012.035zm-.421-2.34-.012-.07.058-.199.024-.093-.012-.21.023-.106.082-.047-.023.094v.058l.012.024-.024.023v.175l-.023.047-.047.094v.152l-.011.046-.012.047h-.012l-.023-.023zm.245-.97-.058.081-.012.059-.012.058v-.046l-.011-.024-.012-.023.058-.456.047-.14.024.058v.07l-.059.269v.07zM8.3 20.72l.012.047-.012.047-.07.093v.059l-.023.011-.012.012-.023.035H8.16l-.012.047-.023.023-.082.036-.023-.036-.024-.023-.035-.012-.011.012-.012.035-.024.012h-.023l-.035-.047.023-.035.012-.117.058-.082.176-.222.082-.059.058-.011.012.047v.093zm23.378-15.04.012-.023h.035l.023.023.023.023-.011.036-.035.023-.012.023.035.012-.035.035-.023-.011-.035-.012-.036-.012v.012l-.011.023-.012.012-.023.011h-.012l-.082-.034-.011-.012v-.024l.128-.035.059-.023zm.41.21.07.036.07.117.058.023-.035.023-.234.082-.047.012-.023-.012-.012-.035v-.023l.024-.012.023.012.059-.07.023-.024.047-.011h-.035l-.082-.024-.024.012-.035.023h-.023l.023-.047-.047.036h-.035l-.023-.012-.047-.024.035-.035V5.88l.024-.024.023-.011h.024l.023.035-.012-.035v-.012l.012-.023.023-.024h-.058l.023-.035.129-.082.047-.011-.012.023-.035.117v.023h.023l.035.012.024.023zm.923-.97-.012.023.012.024.012.011.011.012.012.035-.012.035-.023.012-.047-.035v-.012l-.023-.047-.012-.011h-.07l-.012-.047.012-.047.047-.011.046.046v-.023l.012-.023.024-.024.011-.023.012.023.011.035v.023l-.011.024zm.702-1.357.023.012.012.012-.024.082-.046.07-.012.011.012.035.046.07.012.036-.035.011-.059.035h-.046l-.012.024v.011l.012.024v.023l-.024.012-.011.012-.024-.059-.023-.023-.024-.012-.023.012h-.023l-.012-.035.012-.07.011-.082.012-.024h.035l.035.035.024.012-.012-.047.012-.082h-.024l-.035-.035.023-.047.047-.035.035-.023-.012-.035.024-.024.035.012.012.035v.024l.011.011.012.012zM8.815 54.111v.07l.047.141v.07l-.035-.011-.012-.012-.012-.07-.023-.082v-.059zm-.445-.467.082-.012.047.023.023.012-.046.047-.047.012-.058-.012-.082.012-.059-.012.047-.035.07.012.024-.047zM3.634 42.93l.07-.012.012-.035.024-.035h.081l-.046.047-.047.058-.035.035-.024.035h-.023v-.046z"/></svg>